<svg width="185" height="56" viewBox="0 0 185 56" fill="none" xmlns="http://www.w3.org/2000/svg">
<path d="M62.0709 25.8086C60.0748 23.793 63.0904 23.918 60.5513 23.6211C58.0045 23.3164 55.2857 24.2227 52.817 24.082C51.8287 24.0195 50.9693 23.8867 49.9732 24.0234C48.8873 24.1875 48.1373 24.0352 47.0552 24.0391C46.4615 24.0391 45.8795 24.0859 45.2974 24.1562C45.9146 23.6875 46.5357 23.1992 47.2506 22.7891C48.0513 22.7891 48.3795 21.9961 48.8521 21.6875C49.9849 21.5195 50.7935 20.582 51.4459 19.9414L51.9224 20.0977C52.2545 19.9414 52.4146 19.9414 52.567 19.7852C52.8912 19.7852 52.8912 19.4688 53.2154 19.4688H53.3795C53.3795 18.8438 54.1842 18.9883 54.3482 18.5234C55.1568 18.3672 55.3131 17.418 56.1138 17.418C56.1138 17.418 57.5748 16.9414 57.7349 16.3047C59.3404 15.8281 58.567 16.5938 59.5435 16.1133C59.7037 15.957 59.8638 15.6445 59.8638 15.4844C59.5435 15.1641 58.4068 13.7383 58.4068 13.2695V13.1094C58.0865 12.4766 57.606 11.8477 56.9576 11.6875C57.1099 11.3672 56.8013 11.0586 56.8013 10.7422V10.5781C56.3092 9.63672 55.8365 8.52344 54.6998 8.05859C54.2154 8.37109 53.5748 8.05859 53.0826 8.37109C53.0826 9.78906 51.1138 9.66797 50.3131 10.1445C50.3131 10.6172 49.3443 10.6172 49.3443 11.2617C48.5357 11.0977 48.5357 12.3633 47.8912 12.3633C47.7232 12.3633 47.567 12.1992 47.4068 12.1992C46.2857 12.6758 44.9888 12.9922 44.1802 13.9414C43.6881 14.1055 43.5396 14.8867 43.0474 15.1992C42.774 15.7578 42.1138 15.4531 41.6256 15.4883C41.5787 15.4883 41.5396 15.5039 41.5006 15.5117C41.4654 15.5117 41.4615 15.5195 41.4342 15.5312C41.3287 15.4062 41.1842 15.3125 41.1412 15.1875C40.731 14.5508 40.9302 13.6602 40.7935 12.9922C41.1177 12.5156 41.1177 12.043 41.1177 11.5625C41.1177 10.9336 41.1177 10.4609 40.9537 9.82422C41.1177 9.19531 41.1177 8.41016 41.1177 7.77734C41.1177 4.93359 40.7935 8.37891 39.4967 6.00391L39.6685 5.84766C39.6685 5.375 39.1802 5.05469 39.1802 4.74219V4.58594C38.5357 4.58594 37.4068 1.90234 37.0865 1.26563C36.4381 1.26563 36.2818 0.632812 35.7857 0.632812C35.7857 0.316406 34.9888 0.316406 34.8248 0L34.6607 0.316406C33.6881 0.316406 32.5631 2.6875 32.5631 3.47656C32.5631 4.10547 33.1998 4.74219 33.0435 5.375V5.53516C34.0123 6.16797 34.3365 7.27734 34.3365 8.21484C34.3365 8.69141 34.1763 8.26953 34.2232 8.62109C34.274 8.9375 34.1998 8.74219 34.0123 8.875V9.35938C34.0123 9.66797 33.856 10.1445 34.1763 10.293C34.1763 10.7813 34.0123 11.0977 34.0123 11.5625C34.0123 11.7227 34.1763 12.043 34.1763 12.1992C34.0123 12.3633 34.0123 12.6758 34.0123 12.8359C34.0123 13.4609 34.0123 13.9414 33.5318 14.418C33.5318 14.418 33.3756 14.7266 33.3756 14.8867C33.3756 15.1992 33.6881 15.5195 33.6881 15.8281C33.6881 16.3047 33.0435 16.6211 33.1998 17.418L32.8834 17.8867C32.8834 18.2031 33.0435 18.5234 33.0435 18.8438L32.8834 19.1484C33.0435 20.4258 32.0787 21.2109 31.9107 22.3125C31.9107 22.3125 31.9029 22.3242 31.9029 22.3281C31.8404 22.3125 31.7896 22.3125 31.7427 22.293C30.9849 22.293 30.7037 22.9688 30.2545 23.2734C30.1295 23.3789 29.9342 23.4961 29.7076 23.6211C29.5748 23.5 29.4342 23.3672 29.3248 23.2305C29.1099 23.0703 28.942 22.8203 28.8521 22.625C27.2388 21.9961 25.9498 20.8945 24.3404 20.4258C23.856 19.6289 22.8873 19.1484 22.2388 18.5234C21.2662 18.6836 20.6217 17.5742 19.649 17.418C19.0084 17.1055 18.6881 16.1484 17.8834 16.3047C17.0709 15.3633 15.1295 13.9414 13.8482 13.9414C13.2037 12.6758 14.0865 14.2695 12.7935 13.3242C12.6373 13.1641 12.4732 12.8438 12.1529 12.8438C11.5045 12.3672 10.6959 12.3672 10.2193 11.7344C10.0513 11.1133 9.40681 11.1133 8.91462 11.1133H8.10993C7.9654 11.4219 7.4654 11.7344 7.4654 12.0547V12.3672H7.30525C7.4654 13 6.99275 13.1641 6.99275 13.793L7.30525 14.2695C7.30525 14.7422 7.9654 14.9023 8.28181 15.3711C9.0865 15.3711 9.40681 16.9492 10.3677 17.2656C10.5396 17.9023 11.3443 18.2187 11.5045 19.0117C12.4732 19.4805 14.1646 20.2617 14.817 20.8945C15.942 20.582 16.2584 22.4727 17.3912 22.3125H17.7154L18.1998 22.625C18.3677 22.625 18.6881 22.4727 18.8521 22.625C19.5396 23.7188 20.8326 23.8711 21.899 24.3945C21.4381 24.4336 20.9693 24.5703 20.5474 24.5703C19.5084 24.5703 18.4615 24.3633 17.4224 24.2773C15.9498 24.1562 14.7896 23.8398 13.3365 24.082C12.0826 24.2852 10.7623 24.4336 9.53181 24.5938C7.70759 24.8203 5.9029 25.0508 4.09821 25.3203C2.93806 25.5 1.65681 24.5078 0.67634 25.3633C-0.171316 26.1133 -0.210379 27.3477 0.492747 28.2188C1.25837 29.1758 2.32868 29.3281 3.41071 29.7578C4.52009 30.1914 5.63728 30.5 6.80915 30.5703C9.16462 30.7305 11.1217 31.2305 13.4888 30.8555C14.7584 30.6562 16.0982 30.6523 17.4302 30.6523C17.2857 30.7734 17.1099 30.8945 16.9107 31.0039C16.4537 31.0039 16.1685 31.3008 15.9029 31.5977L14.7271 32.4766C13.6724 33.0195 12.1646 33.4648 12.1646 33.4648C11.6802 33.4648 11.1959 33.9375 10.7076 33.9375H10.5513C10.2271 34.4062 9.42634 34.0859 9.0904 34.5664C8.13337 34.4063 7.32868 35.0391 6.51228 35.3516C5.7115 35.5156 5.55525 36.6172 5.55525 37.25C5.55525 37.8906 5.87165 38.5195 6.03181 38.9844C6.35212 39.7773 6.8365 39.6211 6.8365 39.9414V40.0977L7.16853 40.2539L7.48103 40.0977C8.13337 40.7227 9.74665 43.1016 10.3873 43.2539C10.8677 43.5742 11.5162 43.7305 12.1646 43.7305C12.6568 43.7305 15.442 42.3789 17.5318 41.3164L18.0513 41.0117C18.0513 41.0117 18.2467 40.8203 18.3756 40.8047C18.5084 40.7852 18.6724 40.7227 18.6724 40.7227L18.9342 40.5742L19.192 40.4336L19.5123 40.3086C19.5123 40.3086 19.8287 40.1836 19.981 40.168C20.6217 40.1445 20.942 39.6953 21.4342 39.2266C22.399 38.7539 23.524 38.1211 24.1685 37.1719C24.9849 37.1719 25.4615 36.375 26.1099 36.2227C26.4342 34.9609 28.0396 35.2734 28.5357 34.3242C28.6802 34.3008 28.7857 34.3164 28.8638 34.3477L28.8717 34.3555V34.3477C28.8912 34.3594 28.9146 34.3711 28.9302 34.3828C28.9459 34.3906 28.9615 34.4063 28.9732 34.4297C29.2467 34.7227 28.9302 35.5469 29.1724 35.9023C28.8521 36.0664 29.1724 36.5352 29.0084 36.8555C28.3638 37.4844 27.8873 38.2734 27.8873 39.2266V39.6953C27.2388 40.3281 26.9107 41.2812 26.5904 42.2344C26.7506 43.0117 25.4615 43.1797 25.4615 44.1133L25.3013 44.2891C25.4615 44.4375 25.4615 44.7578 25.4615 44.9023C25.6256 45.2266 25.6256 45.5508 25.6256 45.8633C25.6256 46.6445 25.3013 47.2852 25.3013 48.0781C25.3013 48.3945 25.3013 48.5508 25.4615 48.8672C26.2701 49.1797 25.4615 50.2852 26.2701 50.4453C26.9107 50.9219 27.2388 51.8594 28.0396 51.7148C28.2037 53.1367 30.1412 52.9727 30.3052 54.4023C31.1177 54.0742 31.274 55.3477 32.0787 55.3477C32.4146 55.3477 32.2388 54.7187 32.4146 54.4023L32.0787 53.9219C32.2388 53.293 32.5631 52.9727 32.5631 52.4961C32.5631 52.3437 32.4146 52.0234 32.4146 51.8594C32.7271 51.5508 33.5318 49.332 33.5318 48.8672V47.4453C33.856 46.4961 34.6607 45.8633 34.8248 44.7578C35.149 44.6055 35.3013 44.1133 35.3013 43.6523C35.3013 43.0117 35.149 42.2344 35.7857 41.7617C35.6217 40.8047 36.1099 40.168 36.1099 39.2266C36.1099 38.8984 36.1099 38.5898 35.9537 38.2734C36.606 37.7969 36.1099 36.375 37.0865 35.9023L37.2388 35.4297C37.2388 35.3945 37.2467 35.2813 37.2545 35.1172C37.2662 34.9102 37.2935 34.6211 37.3209 34.3125C37.8482 34.5508 38.2974 34.7695 38.5045 34.9609H38.5357C39.0162 35.7422 40.1412 35.9023 40.9537 36.5352C42.0826 37.3281 42.731 37.0078 43.6881 37.6445L44.024 37.4844C44.4967 37.4844 45.1451 38.2734 45.4732 38.2734L45.3131 38.4297C46.5982 39.0625 47.7232 39.6953 49.0279 40.3281C49.1763 40.3281 49.3443 40.3281 49.5084 40.4883C51.1138 41.7617 53.8599 43.332 55.7935 43.8125C55.9654 44.2891 56.6021 44.4375 56.7701 44.7578C57.4146 44.7578 57.5748 45.5508 58.2115 45.5508L58.5357 45.3945C58.7037 45.5508 59.1842 45.5508 59.3404 45.8633C59.5123 45.7031 59.6685 45.3945 59.5123 45.0781V44.6055C58.2115 43.8125 57.7349 40.6406 57.0826 39.8555C57.2467 38.8984 56.2779 38.2734 55.9654 37.4844C55.3131 37.4844 55.1568 36.8555 54.6646 36.8555H54.3482C53.8599 36.5352 53.0474 36.6953 53.0474 35.9023V35.7422C52.0865 34.9609 51.4459 34.0156 50.6295 33.3828C50.3131 33.2188 50.1529 33.2188 49.9849 33.2188C49.6685 33.2188 49.1763 33.3828 49.0279 33.5352C47.8912 33.6914 47.4068 32.5898 46.2857 32.5898C45.1451 31.793 43.856 31.3281 42.5709 30.6836C42.3404 30.5469 42.1568 30.3008 41.9537 30.0742C42.5279 29.9922 42.8365 30.1055 43.4185 30.1211C44.1177 30.1445 44.7271 30.0117 45.4732 29.9531C46.3756 29.8711 46.8717 30.4062 47.7506 30.5586C49.2584 30.8242 50.6959 29.6563 52.0982 29.5234C54.4654 29.3203 56.8717 29.6484 59.1802 29.3516C59.5748 29.293 59.0787 29.5547 60.3482 29.4805C61.1802 29.4336 62.9576 29.8242 63.3521 28.7656C63.606 28.1055 62.524 26.2695 62.0709 25.8086Z" fill="#E21E25"/>
<path d="M75.4302 52.0625H84.4693V4.80078H75.4302V52.0625Z" fill="#1C1C1A"/>
<path d="M93.567 52.0625V4.80078H102.993L121.583 37.0156H121.715V4.80078H130.227V52.0625H121.52L102.208 18.418H102.075V52.0625" fill="#1C1C1A"/>
<path d="M169.305 4.73438V12.332H156.934V52.0625H147.903V12.332H135.528V4.73438" fill="#1C1C1A"/>
<path d="M175.665 52.0625H184.696V4.80078H175.665V52.0625Z" fill="#1C1C1A"/>
</svg>
