<?xml version="1.0" encoding="UTF-8"?>
<svg xmlns="http://www.w3.org/2000/svg" xmlns:xlink="http://www.w3.org/1999/xlink" width="443.93pt" height="56.51pt" viewBox="0 0 443.93 56.51" version="1.1">
<defs>
<clipPath id="clip1">
  <path d="M 300 36 L 313 36 L 313 56.511719 L 300 56.511719 Z M 300 36 "/>
</clipPath>
<clipPath id="clip2">
  <path d="M 394 36 L 408 36 L 408 56.511719 L 394 56.511719 Z M 394 36 "/>
</clipPath>
<clipPath id="clip3">
  <path d="M 434 36 L 443.929688 36 L 443.929688 42 L 434 42 Z M 434 36 "/>
</clipPath>
</defs>
<g id="surface1">
<path style=" stroke:none;fill-rule:nonzero;fill:rgb(88.598633%,11.799622%,14.498901%);fill-opacity:1;" d="M 62.070313 25.804688 C 60.074219 23.789063 63.089844 23.914063 60.550781 23.617188 C 58.003906 23.3125 55.285156 24.21875 52.816406 24.078125 C 51.828125 24.015625 50.96875 23.882813 49.972656 24.019531 C 48.886719 24.183594 48.136719 24.03125 47.054688 24.035156 C 46.460938 24.035156 45.878906 24.082031 45.296875 24.152344 C 45.914063 23.683594 46.535156 23.195313 47.25 22.785156 C 48.050781 22.785156 48.378906 21.992188 48.851563 21.683594 C 49.984375 21.515625 50.792969 20.578125 51.445313 19.9375 L 51.921875 20.09375 C 52.253906 19.9375 52.414063 19.9375 52.566406 19.78125 C 52.890625 19.78125 52.890625 19.464844 53.214844 19.464844 L 53.378906 19.464844 C 53.378906 18.839844 54.183594 18.984375 54.347656 18.519531 C 55.15625 18.363281 55.3125 17.414063 56.113281 17.414063 C 56.113281 17.414063 57.574219 16.9375 57.734375 16.300781 C 59.339844 15.824219 58.566406 16.589844 59.542969 16.109375 C 59.703125 15.953125 59.863281 15.640625 59.863281 15.480469 C 59.542969 15.160156 58.40625 13.734375 58.40625 13.265625 L 58.40625 13.105469 C 58.085938 12.472656 57.605469 11.84375 56.957031 11.683594 C 57.109375 11.363281 56.800781 11.054688 56.800781 10.738281 L 56.800781 10.574219 C 56.308594 9.632813 55.835938 8.519531 54.699219 8.054688 C 54.214844 8.367188 53.574219 8.054688 53.082031 8.367188 C 53.082031 9.785156 51.113281 9.664063 50.3125 10.140625 C 50.3125 10.613281 49.34375 10.613281 49.34375 11.257813 C 48.535156 11.09375 48.535156 12.359375 47.890625 12.359375 C 47.722656 12.359375 47.566406 12.195313 47.40625 12.195313 C 46.285156 12.671875 44.988281 12.988281 44.179688 13.9375 C 43.6875 14.101563 43.539063 14.882813 43.046875 15.195313 C 42.773438 15.753906 42.113281 15.449219 41.625 15.484375 C 41.578125 15.484375 41.539063 15.5 41.5 15.507813 C 41.464844 15.507813 41.460938 15.515625 41.433594 15.527344 C 41.328125 15.402344 41.183594 15.308594 41.140625 15.183594 C 40.730469 14.546875 40.929688 13.65625 40.792969 12.988281 C 41.117188 12.511719 41.117188 12.039063 41.117188 11.558594 C 41.117188 10.929688 41.117188 10.457031 40.953125 9.820313 C 41.117188 9.191406 41.117188 8.40625 41.117188 7.773438 C 41.117188 4.929688 40.792969 8.375 39.496094 6 L 39.667969 5.84375 C 39.667969 5.371094 39.179688 5.050781 39.179688 4.738281 L 39.179688 4.582031 C 38.535156 4.582031 37.40625 1.898438 37.085938 1.261719 C 36.4375 1.261719 36.28125 0.628906 35.785156 0.628906 C 35.785156 0.3125 34.988281 0.3125 34.824219 -0.00390625 L 34.660156 0.3125 C 33.6875 0.3125 32.5625 2.683594 32.5625 3.472656 C 32.5625 4.101563 33.199219 4.738281 33.042969 5.371094 L 33.042969 5.53125 C 34.011719 6.164063 34.335938 7.273438 34.335938 8.210938 C 34.335938 8.6875 34.175781 8.265625 34.222656 8.617188 C 34.273438 8.933594 34.199219 8.738281 34.011719 8.871094 L 34.011719 9.355469 C 34.011719 9.664063 33.855469 10.140625 34.175781 10.289063 C 34.175781 10.777344 34.011719 11.09375 34.011719 11.558594 C 34.011719 11.71875 34.175781 12.039063 34.175781 12.195313 C 34.011719 12.359375 34.011719 12.671875 34.011719 12.832031 C 34.011719 13.457031 34.011719 13.9375 33.53125 14.414063 C 33.53125 14.414063 33.375 14.722656 33.375 14.882813 C 33.375 15.195313 33.6875 15.515625 33.6875 15.824219 C 33.6875 16.300781 33.042969 16.617188 33.199219 17.414063 L 32.882813 17.882813 C 32.882813 18.199219 33.042969 18.519531 33.042969 18.839844 L 32.882813 19.144531 C 33.042969 20.421875 32.078125 21.207031 31.910156 22.308594 C 31.910156 22.308594 31.902344 22.320313 31.902344 22.324219 C 31.839844 22.308594 31.789063 22.308594 31.742188 22.289063 C 30.984375 22.289063 30.703125 22.964844 30.253906 23.269531 C 30.128906 23.375 29.933594 23.492188 29.707031 23.617188 C 29.574219 23.496094 29.433594 23.363281 29.324219 23.226563 C 29.109375 23.066406 28.941406 22.816406 28.851563 22.621094 C 27.238281 21.992188 25.949219 20.890625 24.339844 20.421875 C 23.855469 19.625 22.886719 19.144531 22.238281 18.519531 C 21.265625 18.679688 20.621094 17.570313 19.648438 17.414063 C 19.007813 17.101563 18.6875 16.144531 17.882813 16.300781 C 17.070313 15.359375 15.128906 13.9375 13.847656 13.9375 C 13.203125 12.671875 14.085938 14.265625 12.792969 13.320313 C 12.636719 13.160156 12.472656 12.839844 12.152344 12.839844 C 11.503906 12.363281 10.695313 12.363281 10.21875 11.730469 C 10.050781 11.109375 9.40625 11.109375 8.914063 11.109375 L 8.109375 11.109375 C 7.964844 11.417969 7.464844 11.730469 7.464844 12.050781 L 7.464844 12.363281 L 7.304688 12.363281 C 7.464844 12.996094 6.992188 13.160156 6.992188 13.789063 L 7.304688 14.265625 C 7.304688 14.738281 7.964844 14.898438 8.28125 15.367188 C 9.085938 15.367188 9.40625 16.945313 10.367188 17.261719 C 10.539063 17.898438 11.34375 18.214844 11.503906 19.007813 C 12.472656 19.476563 14.164063 20.257813 14.816406 20.890625 C 15.941406 20.578125 16.257813 22.46875 17.390625 22.308594 L 17.714844 22.308594 L 18.199219 22.621094 C 18.367188 22.621094 18.6875 22.46875 18.851563 22.621094 C 19.539063 23.714844 20.832031 23.867188 21.898438 24.390625 C 21.4375 24.429688 20.96875 24.566406 20.546875 24.566406 C 19.507813 24.566406 18.460938 24.359375 17.421875 24.273438 C 15.949219 24.152344 14.789063 23.835938 13.335938 24.078125 C 12.082031 24.28125 10.761719 24.429688 9.53125 24.589844 C 7.707031 24.816406 5.902344 25.046875 4.097656 25.316406 C 2.9375 25.496094 1.65625 24.503906 0.675781 25.359375 C -0.171875 26.109375 -0.210938 27.34375 0.492188 28.214844 C 1.257813 29.171875 2.328125 29.324219 3.410156 29.753906 C 4.519531 30.1875 5.636719 30.496094 6.808594 30.566406 C 9.164063 30.726563 11.121094 31.226563 13.488281 30.851563 C 14.757813 30.652344 16.097656 30.648438 17.429688 30.648438 C 17.285156 30.769531 17.109375 30.890625 16.910156 31 C 16.453125 31 16.167969 31.296875 15.902344 31.59375 L 14.726563 32.472656 C 13.671875 33.015625 12.164063 33.460938 12.164063 33.460938 C 11.679688 33.460938 11.195313 33.933594 10.707031 33.933594 L 10.550781 33.933594 C 10.226563 34.402344 9.425781 34.082031 9.089844 34.5625 C 8.132813 34.402344 7.328125 35.035156 6.511719 35.347656 C 5.710938 35.511719 5.554688 36.613281 5.554688 37.246094 C 5.554688 37.886719 5.871094 38.515625 6.03125 38.980469 C 6.351563 39.773438 6.835938 39.617188 6.835938 39.9375 L 6.835938 40.09375 L 7.167969 40.25 L 7.480469 40.09375 C 8.132813 40.71875 9.746094 43.097656 10.386719 43.25 C 10.867188 43.570313 11.515625 43.726563 12.164063 43.726563 C 12.65625 43.726563 15.441406 42.375 17.53125 41.3125 L 18.050781 41.007813 C 18.050781 41.007813 18.246094 40.816406 18.375 40.800781 C 18.507813 40.78125 18.671875 40.71875 18.671875 40.71875 L 18.933594 40.570313 L 19.191406 40.429688 L 19.511719 40.304688 C 19.511719 40.304688 19.828125 40.179688 19.980469 40.164063 C 20.621094 40.140625 20.941406 39.691406 21.433594 39.222656 C 22.398438 38.75 23.523438 38.117188 24.167969 37.167969 C 24.984375 37.167969 25.460938 36.371094 26.109375 36.21875 C 26.433594 34.957031 28.039063 35.269531 28.535156 34.320313 C 28.679688 34.296875 28.785156 34.3125 28.863281 34.34375 L 28.871094 34.351563 L 28.871094 34.34375 C 28.890625 34.355469 28.914063 34.367188 28.929688 34.378906 C 28.945313 34.386719 28.960938 34.402344 28.972656 34.425781 C 29.246094 34.71875 28.929688 35.542969 29.171875 35.898438 C 28.851563 36.0625 29.171875 36.53125 29.007813 36.851563 C 28.363281 37.480469 27.886719 38.269531 27.886719 39.222656 L 27.886719 39.691406 C 27.238281 40.324219 26.910156 41.277344 26.589844 42.230469 C 26.75 43.007813 25.460938 43.175781 25.460938 44.109375 L 25.300781 44.285156 C 25.460938 44.433594 25.460938 44.753906 25.460938 44.898438 C 25.625 45.222656 25.625 45.546875 25.625 45.859375 C 25.625 46.640625 25.300781 47.28125 25.300781 48.074219 C 25.300781 48.390625 25.300781 48.546875 25.460938 48.863281 C 26.269531 49.175781 25.460938 50.28125 26.269531 50.441406 C 26.910156 50.917969 27.238281 51.855469 28.039063 51.710938 C 28.203125 53.132813 30.140625 52.96875 30.304688 54.398438 C 31.117188 54.070313 31.273438 55.34375 32.078125 55.34375 C 32.414063 55.34375 32.238281 54.714844 32.414063 54.398438 L 32.078125 53.917969 C 32.238281 53.289063 32.5625 52.96875 32.5625 52.492188 C 32.5625 52.339844 32.414063 52.019531 32.414063 51.855469 C 32.726563 51.546875 33.53125 49.328125 33.53125 48.863281 L 33.53125 47.441406 C 33.855469 46.492188 34.660156 45.859375 34.824219 44.753906 C 35.148438 44.601563 35.300781 44.109375 35.300781 43.648438 C 35.300781 43.007813 35.148438 42.230469 35.785156 41.757813 C 35.621094 40.800781 36.109375 40.164063 36.109375 39.222656 C 36.109375 38.894531 36.109375 38.585938 35.953125 38.269531 C 36.605469 37.792969 36.109375 36.371094 37.085938 35.898438 L 37.238281 35.425781 C 37.238281 35.390625 37.246094 35.277344 37.253906 35.113281 C 37.265625 34.90625 37.292969 34.617188 37.320313 34.308594 C 37.847656 34.546875 38.296875 34.765625 38.503906 34.957031 L 38.535156 34.957031 C 39.015625 35.738281 40.140625 35.898438 40.953125 36.53125 C 42.082031 37.324219 42.730469 37.003906 43.6875 37.640625 L 44.023438 37.480469 C 44.496094 37.480469 45.144531 38.269531 45.472656 38.269531 L 45.3125 38.425781 C 46.597656 39.058594 47.722656 39.691406 49.027344 40.324219 C 49.175781 40.324219 49.34375 40.324219 49.507813 40.484375 C 51.113281 41.757813 53.859375 43.328125 55.792969 43.808594 C 55.964844 44.285156 56.601563 44.433594 56.769531 44.753906 C 57.414063 44.753906 57.574219 45.546875 58.210938 45.546875 L 58.535156 45.390625 C 58.703125 45.546875 59.183594 45.546875 59.339844 45.859375 C 59.511719 45.699219 59.667969 45.390625 59.511719 45.074219 L 59.511719 44.601563 C 58.210938 43.808594 57.734375 40.636719 57.082031 39.851563 C 57.246094 38.894531 56.277344 38.269531 55.964844 37.480469 C 55.3125 37.480469 55.15625 36.851563 54.664063 36.851563 L 54.347656 36.851563 C 53.859375 36.53125 53.046875 36.691406 53.046875 35.898438 L 53.046875 35.738281 C 52.085938 34.957031 51.445313 34.011719 50.628906 33.378906 C 50.3125 33.214844 50.152344 33.214844 49.984375 33.214844 C 49.667969 33.214844 49.175781 33.378906 49.027344 33.53125 C 47.890625 33.6875 47.40625 32.585938 46.285156 32.585938 C 45.144531 31.789063 43.855469 31.324219 42.570313 30.679688 C 42.339844 30.542969 42.15625 30.296875 41.953125 30.070313 C 42.527344 29.988281 42.835938 30.101563 43.417969 30.117188 C 44.117188 30.140625 44.726563 30.007813 45.472656 29.949219 C 46.375 29.867188 46.871094 30.402344 47.75 30.554688 C 49.257813 30.820313 50.695313 29.652344 52.097656 29.519531 C 54.464844 29.316406 56.871094 29.644531 59.179688 29.347656 C 59.574219 29.289063 59.078125 29.550781 60.347656 29.476563 C 61.179688 29.429688 62.957031 29.820313 63.351563 28.761719 C 63.605469 28.101563 62.523438 26.265625 62.070313 25.804688 "/>
<path style=" stroke:none;fill-rule:nonzero;fill:rgb(10.998535%,10.998535%,10.198975%);fill-opacity:1;" d="M 75.429688 52.058594 L 84.46875 52.058594 L 84.46875 4.796875 L 75.429688 4.796875 Z M 75.429688 52.058594 "/>
<path style=" stroke:none;fill-rule:nonzero;fill:rgb(10.998535%,10.998535%,10.198975%);fill-opacity:1;" d="M 93.566406 52.058594 L 93.566406 4.796875 L 102.992188 4.796875 L 121.582031 37.011719 L 121.714844 37.011719 L 121.714844 4.796875 L 130.226563 4.796875 L 130.226563 52.058594 L 121.519531 52.058594 L 102.207031 18.414063 L 102.074219 18.414063 L 102.074219 52.058594 "/>
<path style=" stroke:none;fill-rule:nonzero;fill:rgb(10.998535%,10.998535%,10.198975%);fill-opacity:1;" d="M 169.304688 4.730469 L 169.304688 12.328125 L 156.933594 12.328125 L 156.933594 52.058594 L 147.902344 52.058594 L 147.902344 12.328125 L 135.527344 12.328125 L 135.527344 4.730469 "/>
<path style=" stroke:none;fill-rule:nonzero;fill:rgb(10.998535%,10.998535%,10.198975%);fill-opacity:1;" d="M 175.664063 52.058594 L 184.695313 52.058594 L 184.695313 4.796875 L 175.664063 4.796875 Z M 175.664063 52.058594 "/>
<path style=" stroke:none;fill-rule:nonzero;fill:rgb(28.999329%,28.999329%,28.999329%);fill-opacity:1;" d="M 198.050781 25.398438 L 201.941406 25.398438 L 201.941406 5.054688 L 198.050781 5.054688 Z M 198.050781 25.398438 "/>
<path style=" stroke:none;fill-rule:nonzero;fill:rgb(28.999329%,28.999329%,28.999329%);fill-opacity:1;" d="M 205.941406 25.402344 L 205.941406 10.746094 L 209.15625 10.746094 L 209.15625 12.320313 C 210.453125 11.421875 211.945313 10.460938 213.664063 10.460938 C 216.59375 10.460938 218.003906 12.378906 218.003906 15.367188 L 218.003906 25.402344 L 214.507813 25.402344 L 214.507813 15.875 C 214.507813 13.898438 213.890625 13.28125 212.703125 13.28125 C 211.183594 13.28125 210.027344 14.152344 209.4375 14.832031 L 209.4375 25.402344 "/>
<path style=" stroke:none;fill-rule:nonzero;fill:rgb(28.999329%,28.999329%,28.999329%);fill-opacity:1;" d="M 221.613281 10.746094 L 221.613281 5.894531 L 225.109375 5.894531 L 225.109375 10.746094 L 227.984375 10.746094 L 227.984375 13.5625 L 225.109375 13.5625 L 225.109375 21.847656 C 225.109375 22.640625 225.503906 22.863281 226.375 22.863281 C 226.910156 22.863281 227.476563 22.695313 227.984375 22.578125 L 227.984375 25.457031 C 227.019531 25.566406 226.175781 25.683594 225.21875 25.683594 C 222.628906 25.683594 221.613281 24.386719 221.613281 22.300781 L 221.613281 13.5625 L 219.585938 13.5625 L 219.585938 10.746094 "/>
<path style=" stroke:none;fill-rule:nonzero;fill:rgb(28.999329%,28.999329%,28.999329%);fill-opacity:1;" d="M 237.871094 16.269531 C 237.820313 14.242188 236.746094 13.054688 235.058594 13.054688 C 233.363281 13.054688 232.292969 14.242188 232.234375 16.269531 Z M 232.234375 18.636719 C 232.292969 21.679688 233.648438 22.863281 235.28125 22.863281 C 236.914063 22.863281 237.675781 22.128906 238.550781 21.117188 L 241.089844 22.695313 C 239.738281 24.777344 237.761719 25.683594 234.941406 25.683594 C 231.136719 25.683594 228.742188 22.722656 228.742188 18.070313 C 228.742188 13.421875 231.136719 10.460938 235.113281 10.460938 C 238.941406 10.433594 241.089844 13.675781 241.089844 17.199219 L 241.089844 18.636719 "/>
<path style=" stroke:none;fill-rule:nonzero;fill:rgb(28.999329%,28.999329%,28.999329%);fill-opacity:1;" d="M 243.171875 25.402344 L 243.171875 10.746094 L 246.386719 10.746094 L 246.386719 13.253906 L 246.441406 13.253906 C 247.289063 11.507813 248.46875 10.519531 250.554688 10.460938 L 250.554688 14.152344 C 250.386719 14.128906 250.191406 14.128906 249.9375 14.128906 C 248.191406 14.128906 246.664063 16.125 246.664063 16.492188 L 246.664063 25.402344 "/>
<path style=" stroke:none;fill-rule:nonzero;fill:rgb(28.999329%,28.999329%,28.999329%);fill-opacity:1;" d="M 252.21875 25.402344 L 252.21875 10.746094 L 255.433594 10.746094 L 255.433594 12.320313 C 256.726563 11.421875 258.222656 10.460938 259.941406 10.460938 C 262.871094 10.460938 264.28125 12.378906 264.28125 15.367188 L 264.28125 25.402344 L 260.789063 25.402344 L 260.789063 15.875 C 260.789063 13.898438 260.164063 13.28125 258.984375 13.28125 C 257.460938 13.28125 256.304688 14.152344 255.714844 14.832031 L 255.714844 25.402344 "/>
<path style=" stroke:none;fill-rule:nonzero;fill:rgb(28.999329%,28.999329%,28.999329%);fill-opacity:1;" d="M 274.429688 18.382813 C 272.085938 18.835938 269.527344 19.3125 269.527344 21.371094 C 269.527344 22.46875 270.230469 23.089844 271.210938 23.089844 C 272.316406 23.089844 273.695313 22.160156 274.429688 21.539063 Z M 274.796875 25.398438 L 274.566406 24.132813 C 273.160156 25.089844 271.835938 25.683594 270.003906 25.683594 C 267.355469 25.683594 266.03125 23.792969 266.03125 21.789063 C 266.03125 18.46875 268.738281 16.71875 274.429688 16.042969 L 274.429688 14.800781 C 274.429688 13.675781 273.527344 13.054688 272.285156 13.054688 C 270.648438 13.054688 269.75 13.929688 269.074219 14.859375 L 266.820313 13.140625 C 267.71875 11.59375 270.144531 10.40625 272.285156 10.460938 C 276.234375 10.546875 277.921875 11.984375 277.921875 16.382813 L 277.921875 23.289063 C 277.921875 24.019531 277.980469 24.75 278.203125 25.398438 "/>
<path style=" stroke:none;fill-rule:nonzero;fill:rgb(28.999329%,28.999329%,28.999329%);fill-opacity:1;" d="M 281.417969 10.746094 L 281.417969 5.894531 L 284.910156 5.894531 L 284.910156 10.746094 L 287.785156 10.746094 L 287.785156 13.5625 L 284.910156 13.5625 L 284.910156 21.847656 C 284.910156 22.640625 285.304688 22.863281 286.179688 22.863281 C 286.714844 22.863281 287.28125 22.695313 287.785156 22.578125 L 287.785156 25.457031 C 286.828125 25.566406 285.988281 25.683594 285.027344 25.683594 C 282.433594 25.683594 281.417969 24.386719 281.417969 22.300781 L 281.417969 13.5625 L 279.390625 13.5625 L 279.390625 10.746094 "/>
<path style=" stroke:none;fill-rule:nonzero;fill:rgb(28.999329%,28.999329%,28.999329%);fill-opacity:1;" d="M 293.539063 25.398438 L 290.042969 25.398438 L 290.042969 10.742188 L 293.539063 10.742188 Z M 290.042969 4.769531 L 293.539063 4.769531 L 293.539063 8.039063 L 290.042969 8.039063 Z M 290.042969 4.769531 "/>
<path style=" stroke:none;fill-rule:nonzero;fill:rgb(28.999329%,28.999329%,28.999329%);fill-opacity:1;" d="M 302.191406 13.28125 C 300.246094 13.28125 299.3125 14.804688 299.3125 18.070313 C 299.3125 21.34375 300.246094 22.863281 302.191406 22.863281 C 304.136719 22.863281 305.066406 21.34375 305.066406 18.070313 C 305.066406 14.804688 304.136719 13.28125 302.191406 13.28125 M 302.191406 10.460938 C 306.164063 10.460938 308.558594 13.421875 308.558594 18.070313 C 308.558594 22.722656 306.164063 25.683594 302.191406 25.683594 C 298.21875 25.683594 295.820313 22.722656 295.820313 18.070313 C 295.820313 13.421875 298.21875 10.460938 302.191406 10.460938 "/>
<path style=" stroke:none;fill-rule:nonzero;fill:rgb(28.999329%,28.999329%,28.999329%);fill-opacity:1;" d="M 310.476563 25.402344 L 310.476563 10.746094 L 313.691406 10.746094 L 313.691406 12.320313 C 314.988281 11.421875 316.480469 10.460938 318.199219 10.460938 C 321.128906 10.460938 322.539063 12.378906 322.539063 15.367188 L 322.539063 25.402344 L 319.039063 25.402344 L 319.039063 15.875 C 319.039063 13.898438 318.421875 13.28125 317.238281 13.28125 C 315.714844 13.28125 314.5625 14.152344 313.96875 14.832031 L 313.96875 25.402344 "/>
<path style=" stroke:none;fill-rule:nonzero;fill:rgb(28.999329%,28.999329%,28.999329%);fill-opacity:1;" d="M 332.683594 18.382813 C 330.347656 18.835938 327.78125 19.3125 327.78125 21.371094 C 327.78125 22.46875 328.484375 23.089844 329.472656 23.089844 C 330.570313 23.089844 331.949219 22.160156 332.683594 21.539063 Z M 333.050781 25.398438 L 332.824219 24.132813 C 331.414063 25.089844 330.09375 25.683594 328.257813 25.683594 C 325.613281 25.683594 324.285156 23.792969 324.285156 21.789063 C 324.285156 18.46875 326.992188 16.71875 332.683594 16.042969 L 332.683594 14.800781 C 332.683594 13.675781 331.777344 13.054688 330.542969 13.054688 C 328.910156 13.054688 328.003906 13.929688 327.332031 14.859375 L 325.074219 13.140625 C 325.972656 11.59375 328.402344 10.40625 330.542969 10.460938 C 334.488281 10.546875 336.179688 11.984375 336.179688 16.382813 L 336.179688 23.289063 C 336.179688 24.019531 336.234375 24.75 336.457031 25.398438 "/>
<path style=" stroke:none;fill-rule:nonzero;fill:rgb(28.999329%,28.999329%,28.999329%);fill-opacity:1;" d="M 339.476563 25.398438 L 342.976563 25.398438 L 342.976563 5.054688 L 339.476563 5.054688 Z M 339.476563 25.398438 "/>
<path style=" stroke:none;fill-rule:nonzero;fill:rgb(28.999329%,28.999329%,28.999329%);fill-opacity:1;" d="M 209.410156 30.804688 L 213.296875 30.804688 L 213.296875 43.542969 C 213.296875 49.492188 209.632813 51.433594 205.488281 51.433594 C 201.347656 51.433594 197.683594 49.492188 197.683594 43.542969 L 197.683594 30.804688 L 201.574219 30.804688 L 201.574219 43.714844 C 201.574219 47.011719 202.867188 48.167969 205.488281 48.167969 C 208.113281 48.167969 209.410156 47.011719 209.410156 43.714844 "/>
<path style=" stroke:none;fill-rule:nonzero;fill:rgb(28.999329%,28.999329%,28.999329%);fill-opacity:1;" d="M 216.90625 51.15625 L 216.90625 36.496094 L 220.121094 36.496094 L 220.121094 38.078125 C 221.414063 37.175781 222.90625 36.21875 224.625 36.21875 C 227.558594 36.21875 228.96875 38.132813 228.96875 41.121094 L 228.96875 51.15625 L 225.472656 51.15625 L 225.472656 41.628906 C 225.472656 39.652344 224.851563 39.035156 223.671875 39.035156 C 222.148438 39.035156 220.992188 39.90625 220.398438 40.585938 L 220.398438 51.15625 "/>
<path style=" stroke:none;fill-rule:nonzero;fill:rgb(28.999329%,28.999329%,28.999329%);fill-opacity:1;" d="M 235.871094 51.15625 L 232.378906 51.15625 L 232.378906 36.5 L 235.871094 36.5 Z M 232.378906 30.523438 L 235.871094 30.523438 L 235.871094 33.792969 L 232.378906 33.792969 Z M 232.378906 30.523438 "/>
<path style=" stroke:none;fill-rule:nonzero;fill:rgb(28.999329%,28.999329%,28.999329%);fill-opacity:1;" d="M 237.761719 36.5 L 241.257813 36.5 L 243.679688 46.421875 L 243.734375 46.421875 L 246.214844 36.5 L 249.710938 36.5 L 245.511719 51.15625 L 241.847656 51.15625 "/>
<path style=" stroke:none;fill-rule:nonzero;fill:rgb(28.999329%,28.999329%,28.999329%);fill-opacity:1;" d="M 259.238281 42.023438 C 259.179688 39.996094 258.105469 38.808594 256.417969 38.808594 C 254.726563 38.808594 253.65625 39.996094 253.601563 42.023438 Z M 253.601563 44.390625 C 253.65625 47.433594 255.011719 48.617188 256.644531 48.617188 C 258.277344 48.617188 259.039063 47.886719 259.914063 46.871094 L 262.449219 48.449219 C 261.097656 50.53125 259.125 51.4375 256.304688 51.4375 C 252.503906 51.4375 250.105469 48.476563 250.105469 43.824219 C 250.105469 39.175781 252.503906 36.21875 256.476563 36.21875 C 260.308594 36.1875 262.449219 39.429688 262.449219 42.953125 L 262.449219 44.390625 "/>
<path style=" stroke:none;fill-rule:nonzero;fill:rgb(28.999329%,28.999329%,28.999329%);fill-opacity:1;" d="M 264.535156 51.15625 L 264.535156 36.496094 L 267.746094 36.496094 L 267.746094 39.007813 L 267.804688 39.007813 C 268.648438 37.261719 269.835938 36.273438 271.917969 36.21875 L 271.917969 39.90625 C 271.746094 39.882813 271.550781 39.882813 271.300781 39.882813 C 269.550781 39.882813 268.03125 41.882813 268.03125 42.246094 L 268.03125 51.15625 "/>
<path style=" stroke:none;fill-rule:nonzero;fill:rgb(28.999329%,28.999329%,28.999329%);fill-opacity:1;" d="M 280.710938 40.359375 C 280.007813 39.601563 279.078125 38.808594 277.976563 38.808594 C 276.625 38.808594 276.003906 39.371094 276.003906 40.25 C 276.003906 42.753906 283.335938 41.683594 283.335938 47.039063 C 283.335938 50.082031 281.023438 51.433594 277.953125 51.433594 C 275.609375 51.433594 273.695313 50.390625 272.398438 48.476563 L 274.738281 46.730469 C 275.554688 47.855469 276.65625 48.839844 278.152344 48.839844 C 279.386719 48.839844 280.230469 48.164063 280.230469 47.179688 C 280.230469 44.671875 272.90625 45.574219 272.90625 40.472656 C 272.90625 37.738281 275.21875 36.21875 277.753906 36.21875 C 279.699219 36.21875 281.644531 36.949219 282.914063 38.445313 "/>
<path style=" stroke:none;fill-rule:nonzero;fill:rgb(28.999329%,28.999329%,28.999329%);fill-opacity:1;" d="M 289.394531 51.15625 L 285.898438 51.15625 L 285.898438 36.5 L 289.394531 36.5 Z M 285.898438 30.523438 L 289.394531 30.523438 L 289.394531 33.792969 L 285.898438 33.792969 Z M 285.898438 30.523438 "/>
<path style=" stroke:none;fill-rule:nonzero;fill:rgb(28.999329%,28.999329%,28.999329%);fill-opacity:1;" d="M 293.367188 36.5 L 293.367188 31.648438 L 296.859375 31.648438 L 296.859375 36.5 L 299.734375 36.5 L 299.734375 39.316406 L 296.859375 39.316406 L 296.859375 47.605469 C 296.859375 48.390625 297.253906 48.617188 298.132813 48.617188 C 298.664063 48.617188 299.230469 48.449219 299.734375 48.332031 L 299.734375 51.210938 C 298.777344 51.320313 297.933594 51.433594 296.972656 51.433594 C 294.382813 51.433594 293.367188 50.140625 293.367188 48.054688 L 293.367188 39.316406 L 291.339844 39.316406 L 291.339844 36.5 "/>
<g clip-path="url(#clip1)" clip-rule="nonzero">
<path style=" stroke:none;fill-rule:nonzero;fill:rgb(28.999329%,28.999329%,28.999329%);fill-opacity:1;" d="M 300.101563 53.523438 C 300.640625 53.636719 301.0625 53.636719 301.566406 53.636719 C 302.777344 53.636719 303.453125 53.296875 303.878906 52.476563 C 304.214844 51.777344 304.445313 51.351563 304.445313 50.757813 C 304.445313 50.222656 304.164063 49.601563 303.992188 49.011719 L 300.074219 36.5 L 303.597656 36.5 L 306.019531 45.515625 L 306.078125 45.515625 L 308.589844 36.5 L 312.082031 36.5 L 307.457031 51.183594 C 305.910156 55.382813 304.667969 56.511719 301.792969 56.511719 C 300.949219 56.511719 300.527344 56.453125 300.101563 56.398438 "/>
</g>
<path style=" stroke:none;fill-rule:nonzero;fill:rgb(28.999329%,28.999329%,28.999329%);fill-opacity:1;" d="M 322.226563 38.300781 C 323.636719 37.398438 325.269531 35.878906 325.269531 34.328125 C 325.269531 33.058594 324.253906 32.273438 323.242188 32.273438 C 321.746094 32.273438 321.042969 33.507813 321.042969 34.664063 C 321.042969 35.992188 321.773438 37.457031 322.226563 38.300781 M 322.339844 49.519531 C 324.140625 49.519531 325.46875 48.785156 326.453125 47.828125 C 324.597656 45.683594 322.789063 43.375 321.324219 41.007813 C 319.691406 42.078125 318.222656 43.261719 318.222656 45.742188 C 318.222656 48.308594 320.363281 49.519531 322.339844 49.519531 M 331.527344 41.347656 C 331.132813 43.433594 330.230469 45.96875 329.246094 47.40625 C 330.117188 48.335938 331.863281 49.125 332.597656 49.125 L 332.597656 51.152344 L 331.863281 51.152344 C 330.851563 51.152344 329.046875 50.253906 327.863281 49.125 C 326.511719 50.589844 324.707031 51.433594 322.058594 51.433594 C 318.898438 51.433594 315.96875 49.152344 315.96875 45.601563 C 315.96875 42.839844 318.253906 40.8125 320.394531 39.457031 C 319.574219 38.246094 318.785156 36.21875 318.785156 34.582031 C 318.785156 32.273438 320.535156 30.523438 323.355469 30.523438 C 325.664063 30.523438 327.523438 31.875 327.523438 34.300781 C 327.523438 36.667969 325.101563 38.527344 323.242188 39.882813 C 324.597656 42.304688 326.398438 44.445313 327.835938 46.023438 C 328.480469 45.179688 329.300781 43.066406 329.667969 40.894531 "/>
<path style=" stroke:none;fill-rule:nonzero;fill:rgb(28.999329%,28.999329%,28.999329%);fill-opacity:1;" d="M 348.523438 36.722656 C 347.957031 35.003906 346.746094 33.792969 344.828125 33.792969 C 342.238281 33.792969 340.660156 36.21875 340.660156 40.980469 C 340.601563 45.742188 342.011719 48.167969 344.941406 48.167969 C 346.691406 48.167969 347.761719 47.546875 348.914063 45.152344 L 352.523438 46.109375 C 351.3125 49.632813 348.664063 51.433594 344.941406 51.433594 C 339.757813 51.433594 336.769531 47.628906 336.769531 40.980469 C 336.769531 34.328125 339.757813 30.523438 344.941406 30.523438 C 348.832031 30.523438 351.085938 32.273438 352.042969 35.878906 "/>
<path style=" stroke:none;fill-rule:nonzero;fill:rgb(28.999329%,28.999329%,28.999329%);fill-opacity:1;" d="M 359.625 39.03125 C 357.679688 39.03125 356.75 40.558594 356.75 43.824219 C 356.75 47.097656 357.679688 48.617188 359.625 48.617188 C 361.570313 48.617188 362.5 47.097656 362.5 43.824219 C 362.5 40.558594 361.570313 39.03125 359.625 39.03125 M 359.625 36.21875 C 363.597656 36.21875 365.992188 39.175781 365.992188 43.824219 C 365.992188 48.476563 363.597656 51.433594 359.625 51.433594 C 355.652344 51.433594 353.257813 48.476563 353.257813 43.824219 C 353.257813 39.175781 355.652344 36.21875 359.625 36.21875 "/>
<path style=" stroke:none;fill-rule:nonzero;fill:rgb(28.999329%,28.999329%,28.999329%);fill-opacity:1;" d="M 368.277344 51.15625 L 371.773438 51.15625 L 371.773438 30.804688 L 368.277344 30.804688 Z M 368.277344 51.15625 "/>
<path style=" stroke:none;fill-rule:nonzero;fill:rgb(28.999329%,28.999329%,28.999329%);fill-opacity:1;" d="M 375.550781 51.15625 L 379.042969 51.15625 L 379.042969 30.804688 L 375.550781 30.804688 Z M 375.550781 51.15625 "/>
<path style=" stroke:none;fill-rule:nonzero;fill:rgb(28.999329%,28.999329%,28.999329%);fill-opacity:1;" d="M 390.457031 42.023438 C 390.402344 39.996094 389.328125 38.808594 387.640625 38.808594 C 385.949219 38.808594 384.878906 39.996094 384.820313 42.023438 Z M 384.820313 44.390625 C 384.878906 47.433594 386.230469 48.617188 387.863281 48.617188 C 389.496094 48.617188 390.261719 47.886719 391.132813 46.871094 L 393.667969 48.449219 C 392.320313 50.53125 390.347656 51.4375 387.527344 51.4375 C 383.722656 51.4375 381.328125 48.476563 381.328125 43.824219 C 381.328125 39.175781 383.722656 36.21875 387.695313 36.21875 C 391.53125 36.1875 393.667969 39.429688 393.667969 42.953125 L 393.667969 44.390625 "/>
<g clip-path="url(#clip2)" clip-rule="nonzero">
<path style=" stroke:none;fill-rule:nonzero;fill:rgb(28.999329%,28.999329%,28.999329%);fill-opacity:1;" d="M 400.859375 38.808594 C 399.363281 38.808594 398.320313 39.882813 398.320313 41.234375 C 398.320313 42.585938 399.363281 43.65625 400.859375 43.65625 C 402.179688 43.65625 403.253906 42.585938 403.253906 41.234375 C 403.253906 39.882813 402.179688 38.808594 400.859375 38.808594 M 397.726563 52.5625 C 397.726563 53.691406 398.6875 54.195313 401.617188 54.195313 C 403.871094 54.195313 404.636719 53.070313 404.636719 52.5625 C 404.636719 51.886719 403.589844 50.871094 400.210938 50.871094 C 398.292969 50.871094 397.726563 51.941406 397.726563 52.5625 M 407.933594 38.582031 C 407.117188 38.582031 406.214844 38.582031 405.675781 38.921875 C 406.125 39.542969 406.464844 40.390625 406.464844 41.515625 C 406.464844 44.277344 404.609375 46.25 400.941406 46.25 C 399.421875 46.25 398.207031 46.308594 398.207031 47.152344 C 398.207031 49.519531 407.851563 46.308594 407.851563 52.171875 C 407.851563 54.257813 405.730469 56.511719 401.054688 56.511719 C 397.113281 56.511719 394.515625 55.324219 394.515625 53.015625 C 394.515625 51.183594 395.898438 50.308594 397.164063 50.308594 L 397.164063 50.253906 C 396.488281 49.828125 394.996094 49.464844 394.996094 47.886719 C 394.996094 46.476563 396.628906 45.402344 397.277344 45.207031 C 396.066406 44.222656 395.109375 43.097656 395.109375 41.316406 C 395.109375 38.75 397.082031 36.21875 400.886719 36.21875 C 402.125 36.21875 403.589844 36.722656 404.496094 37.511719 C 405.167969 36.613281 406.269531 36.160156 407.933594 36.21875 "/>
</g>
<path style=" stroke:none;fill-rule:nonzero;fill:rgb(28.999329%,28.999329%,28.999329%);fill-opacity:1;" d="M 417.511719 42.023438 C 417.460938 39.996094 416.386719 38.808594 414.695313 38.808594 C 413.003906 38.808594 411.9375 39.996094 411.875 42.023438 Z M 411.875 44.390625 C 411.9375 47.433594 413.289063 48.617188 414.921875 48.617188 C 416.554688 48.617188 417.320313 47.886719 418.191406 46.871094 L 420.726563 48.449219 C 419.371094 50.53125 417.402344 51.4375 414.582031 51.4375 C 410.777344 51.4375 408.382813 48.476563 408.382813 43.824219 C 408.382813 39.175781 410.777344 36.21875 414.75 36.21875 C 418.585938 36.1875 420.726563 39.429688 420.726563 42.953125 L 420.726563 44.390625 "/>
<path style=" stroke:none;fill-rule:nonzero;fill:rgb(28.999329%,28.999329%,28.999329%);fill-opacity:1;" d="M 430.164063 40.359375 C 429.464844 39.601563 428.53125 38.808594 427.433594 38.808594 C 426.082031 38.808594 425.460938 39.371094 425.460938 40.25 C 425.460938 42.753906 432.789063 41.683594 432.789063 47.039063 C 432.789063 50.082031 430.480469 51.433594 427.40625 51.433594 C 425.070313 51.433594 423.148438 50.390625 421.851563 48.476563 L 424.195313 46.730469 C 425.011719 47.855469 426.109375 48.839844 427.605469 48.839844 C 428.84375 48.839844 429.695313 48.164063 429.695313 47.179688 C 429.695313 44.671875 422.363281 45.574219 422.363281 40.472656 C 422.363281 37.738281 424.675781 36.21875 427.210938 36.21875 C 429.152344 36.21875 431.101563 36.949219 432.367188 38.445313 "/>
<g clip-path="url(#clip3)" clip-rule="nonzero">
<path style=" stroke:none;fill-rule:nonzero;fill:rgb(10.998535%,10.998535%,10.198975%);fill-opacity:1;" d="M 443.039063 41.066406 L 442.878906 38.445313 C 442.863281 38.097656 442.863281 37.671875 442.847656 37.195313 L 442.796875 37.195313 C 442.679688 37.589844 442.535156 38.113281 442.425781 38.523438 L 441.617188 41.003906 L 440.699219 41.003906 L 439.890625 38.457031 C 439.8125 38.132813 439.679688 37.589844 439.585938 37.195313 L 439.53125 37.195313 C 439.53125 37.605469 439.519531 38.03125 439.5 38.445313 L 439.339844 41.066406 L 438.480469 41.066406 L 438.816406 36.605469 L 440.140625 36.605469 L 440.910156 38.785156 C 441.023438 39.132813 441.089844 39.457031 441.207031 39.917969 L 441.222656 39.917969 C 441.339844 39.53125 441.4375 39.132813 441.53125 38.820313 L 442.304688 36.605469 L 443.585938 36.605469 L 443.929688 41.066406 Z M 438.222656 36.605469 L 438.222656 37.347656 L 436.792969 37.347656 L 436.792969 41.066406 L 435.90625 41.066406 L 435.90625 37.347656 L 434.496094 37.347656 L 434.496094 36.605469 "/>
</g>
</g>
</svg>
