<svg width="64" height="56" viewBox="0 0 64 56" fill="none" xmlns="http://www.w3.org/2000/svg">
<path d="M62.0703 25.8047C60.0742 23.7891 63.0899 23.9141 60.5508 23.6172C58.0039 23.3125 55.2852 24.2188 52.8164 24.0781C51.8281 24.0156 50.9688 23.8828 49.9727 24.0195C48.8867 24.1836 48.1367 24.0313 47.0547 24.0352C46.4609 24.0352 45.8789 24.082 45.2969 24.1523C45.9141 23.6836 46.5352 23.1953 47.25 22.7852C48.0508 22.7852 48.3789 21.9922 48.8516 21.6836C49.9844 21.5156 50.793 20.5781 51.4453 19.9375L51.9219 20.0938C52.2539 19.9375 52.4141 19.9375 52.5664 19.7812C52.8906 19.7812 52.8906 19.4648 53.2149 19.4648H53.3789C53.3789 18.8398 54.1836 18.9844 54.3477 18.5195C55.1563 18.3633 55.3125 17.4141 56.1133 17.4141C56.1133 17.4141 57.5742 16.9375 57.7344 16.3008C59.3399 15.8242 58.5664 16.5898 59.543 16.1094C59.7031 15.9531 59.8633 15.6406 59.8633 15.4805C59.543 15.1602 58.4063 13.7344 58.4063 13.2656V13.1055C58.0859 12.4727 57.6055 11.8437 56.957 11.6836C57.1094 11.3633 56.8008 11.0547 56.8008 10.7383V10.5742C56.3086 9.63281 55.8359 8.51953 54.6992 8.05469C54.2149 8.36719 53.5742 8.05469 53.082 8.36719C53.082 9.78516 51.1133 9.66406 50.3125 10.1406C50.3125 10.6133 49.3438 10.6133 49.3438 11.2578C48.5352 11.0938 48.5352 12.3594 47.8906 12.3594C47.7227 12.3594 47.5664 12.1953 47.4063 12.1953C46.2852 12.6719 44.9883 12.9883 44.1797 13.9375C43.6875 14.1016 43.5391 14.8828 43.0469 15.1953C42.7734 15.7539 42.1133 15.4492 41.625 15.4844C41.5781 15.4844 41.5391 15.5 41.5 15.5078C41.4649 15.5078 41.4609 15.5156 41.4336 15.5273C41.3281 15.4023 41.1836 15.3086 41.1406 15.1836C40.7305 14.5469 40.9297 13.6563 40.793 12.9883C41.1172 12.5117 41.1172 12.0391 41.1172 11.5586C41.1172 10.9297 41.1172 10.457 40.9531 9.82031C41.1172 9.19141 41.1172 8.40625 41.1172 7.77344C41.1172 4.92969 40.793 8.375 39.4961 6L39.668 5.84375C39.668 5.37109 39.1797 5.05078 39.1797 4.73828V4.58203C38.5352 4.58203 37.4063 1.89844 37.0859 1.26172C36.4375 1.26172 36.2813 0.628906 35.7852 0.628906C35.7852 0.3125 34.9883 0.3125 34.8242 -0.00390625L34.6602 0.3125C33.6875 0.3125 32.5625 2.68359 32.5625 3.47266C32.5625 4.10156 33.1992 4.73828 33.043 5.37109V5.53125C34.0117 6.16406 34.3359 7.27344 34.3359 8.21094C34.3359 8.6875 34.1758 8.26563 34.2227 8.61719C34.2734 8.93359 34.1992 8.73828 34.0117 8.87109V9.35547C34.0117 9.66406 33.8555 10.1406 34.1758 10.2891C34.1758 10.7773 34.0117 11.0937 34.0117 11.5586C34.0117 11.7187 34.1758 12.0391 34.1758 12.1953C34.0117 12.3594 34.0117 12.6719 34.0117 12.832C34.0117 13.457 34.0117 13.9375 33.5313 14.4141C33.5313 14.4141 33.375 14.7227 33.375 14.8828C33.375 15.1953 33.6875 15.5156 33.6875 15.8242C33.6875 16.3008 33.043 16.6172 33.1992 17.4141L32.8828 17.8828C32.8828 18.1992 33.043 18.5195 33.043 18.8398L32.8828 19.1445C33.043 20.4219 32.0781 21.207 31.9102 22.3086C31.9102 22.3086 31.9024 22.3203 31.9024 22.3242C31.8399 22.3086 31.7891 22.3086 31.7422 22.2891C30.9844 22.2891 30.7031 22.9648 30.2539 23.2695C30.1289 23.375 29.9336 23.4922 29.707 23.6172C29.5742 23.4961 29.4336 23.3633 29.3242 23.2266C29.1094 23.0664 28.9414 22.8164 28.8516 22.6211C27.2383 21.9922 25.9492 20.8906 24.3399 20.4219C23.8555 19.625 22.8867 19.1445 22.2383 18.5195C21.2656 18.6797 20.6211 17.5703 19.6484 17.4141C19.0078 17.1016 18.6875 16.1445 17.8828 16.3008C17.0703 15.3594 15.1289 13.9375 13.8477 13.9375C13.2031 12.6719 14.0859 14.2656 12.793 13.3203C12.6367 13.1602 12.4727 12.8398 12.1524 12.8398C11.5039 12.3633 10.6953 12.3633 10.2188 11.7305C10.0508 11.1094 9.40626 11.1094 8.91407 11.1094H8.10938C7.96485 11.418 7.46485 11.7305 7.46485 12.0508V12.3633H7.3047C7.46485 12.9961 6.9922 13.1602 6.9922 13.7891L7.3047 14.2656C7.3047 14.7383 7.96485 14.8984 8.28126 15.3672C9.08595 15.3672 9.40626 16.9453 10.3672 17.2617C10.5391 17.8984 11.3438 18.2148 11.5039 19.0078C12.4727 19.4766 14.1641 20.2578 14.8164 20.8906C15.9414 20.5781 16.2578 22.4687 17.3906 22.3086H17.7149L18.1992 22.6211C18.3672 22.6211 18.6875 22.4687 18.8516 22.6211C19.5391 23.7148 20.832 23.8672 21.8984 24.3906C21.4375 24.4297 20.9688 24.5664 20.5469 24.5664C19.5078 24.5664 18.4609 24.3594 17.4219 24.2734C15.9492 24.1523 14.7891 23.8359 13.3359 24.0781C12.082 24.2812 10.7617 24.4297 9.53126 24.5898C7.70704 24.8164 5.90235 25.0469 4.09767 25.3164C2.93751 25.4961 1.65626 24.5039 0.675791 25.3594C-0.171865 26.1094 -0.210928 27.3437 0.492198 28.2148C1.25782 29.1719 2.32813 29.3242 3.41017 29.7539C4.51954 30.1875 5.63673 30.4961 6.8086 30.5664C9.16407 30.7266 11.1211 31.2266 13.4883 30.8516C14.7578 30.6523 16.0977 30.6484 17.4297 30.6484C17.2852 30.7695 17.1094 30.8906 16.9102 31C16.4531 31 16.168 31.2969 15.9024 31.5938L14.7266 32.4727C13.6719 33.0156 12.1641 33.4609 12.1641 33.4609C11.6797 33.4609 11.1953 33.9336 10.707 33.9336H10.5508C10.2266 34.4023 9.42579 34.082 9.08985 34.5625C8.13282 34.4023 7.32813 35.0352 6.51173 35.3477C5.71095 35.5117 5.5547 36.6133 5.5547 37.2461C5.5547 37.8867 5.8711 38.5156 6.03126 38.9805C6.35157 39.7734 6.83595 39.6172 6.83595 39.9375V40.0938L7.16798 40.25L7.48048 40.0938C8.13282 40.7188 9.7461 43.0977 10.3867 43.25C10.8672 43.5703 11.5156 43.7266 12.1641 43.7266C12.6563 43.7266 15.4414 42.375 17.5313 41.3125L18.0508 41.0078C18.0508 41.0078 18.2461 40.8164 18.375 40.8008C18.5078 40.7813 18.6719 40.7188 18.6719 40.7188L18.9336 40.5703L19.1914 40.4297L19.5117 40.3047C19.5117 40.3047 19.8281 40.1797 19.9805 40.1641C20.6211 40.1406 20.9414 39.6914 21.4336 39.2227C22.3984 38.75 23.5234 38.1172 24.168 37.168C24.9844 37.168 25.4609 36.3711 26.1094 36.2188C26.4336 34.957 28.0391 35.2695 28.5352 34.3203C28.6797 34.2969 28.7852 34.3125 28.8633 34.3438L28.8711 34.3516V34.3438C28.8906 34.3555 28.9141 34.3672 28.9297 34.3789C28.9453 34.3867 28.9609 34.4023 28.9727 34.4258C29.2461 34.7188 28.9297 35.543 29.1719 35.8984C28.8516 36.0625 29.1719 36.5312 29.0078 36.8516C28.3633 37.4805 27.8867 38.2695 27.8867 39.2227V39.6914C27.2383 40.3242 26.9102 41.2773 26.5899 42.2305C26.75 43.0078 25.4609 43.1758 25.4609 44.1094L25.3008 44.2852C25.4609 44.4336 25.4609 44.7539 25.4609 44.8984C25.625 45.2227 25.625 45.5469 25.625 45.8594C25.625 46.6406 25.3008 47.2812 25.3008 48.0742C25.3008 48.3906 25.3008 48.5469 25.4609 48.8633C26.2695 49.1758 25.4609 50.2813 26.2695 50.4414C26.9102 50.918 27.2383 51.8555 28.0391 51.7109C28.2031 53.1328 30.1406 52.9687 30.3047 54.3984C31.1172 54.0703 31.2734 55.3438 32.0781 55.3438C32.4141 55.3438 32.2383 54.7148 32.4141 54.3984L32.0781 53.918C32.2383 53.2891 32.5625 52.9687 32.5625 52.4922C32.5625 52.3398 32.4141 52.0195 32.4141 51.8555C32.7266 51.5469 33.5313 49.3281 33.5313 48.8633V47.4414C33.8555 46.4922 34.6602 45.8594 34.8242 44.7539C35.1484 44.6016 35.3008 44.1094 35.3008 43.6484C35.3008 43.0078 35.1484 42.2305 35.7852 41.7578C35.6211 40.8008 36.1094 40.1641 36.1094 39.2227C36.1094 38.8945 36.1094 38.5859 35.9531 38.2695C36.6055 37.793 36.1094 36.3711 37.0859 35.8984L37.2383 35.4258C37.2383 35.3906 37.2461 35.2773 37.2539 35.1133C37.2656 34.9063 37.293 34.6172 37.3203 34.3086C37.8477 34.5469 38.2969 34.7656 38.5039 34.957H38.5352C39.0156 35.7383 40.1406 35.8984 40.9531 36.5312C42.082 37.3242 42.7305 37.0039 43.6875 37.6406L44.0234 37.4805C44.4961 37.4805 45.1445 38.2695 45.4727 38.2695L45.3125 38.4258C46.5977 39.0586 47.7227 39.6914 49.0274 40.3242C49.1758 40.3242 49.3438 40.3242 49.5078 40.4844C51.1133 41.7578 53.8594 43.3281 55.793 43.8086C55.9649 44.2852 56.6016 44.4336 56.7695 44.7539C57.4141 44.7539 57.5742 45.5469 58.2109 45.5469L58.5352 45.3906C58.7031 45.5469 59.1836 45.5469 59.3399 45.8594C59.5117 45.6992 59.668 45.3906 59.5117 45.0742V44.6016C58.2109 43.8086 57.7344 40.6367 57.082 39.8516C57.2461 38.8945 56.2774 38.2695 55.9649 37.4805C55.3125 37.4805 55.1563 36.8516 54.6641 36.8516H54.3477C53.8594 36.5312 53.0469 36.6914 53.0469 35.8984V35.7383C52.0859 34.957 51.4453 34.0117 50.6289 33.3789C50.3125 33.2148 50.1524 33.2148 49.9844 33.2148C49.668 33.2148 49.1758 33.3789 49.0274 33.5312C47.8906 33.6875 47.4063 32.5859 46.2852 32.5859C45.1445 31.7891 43.8555 31.3242 42.5703 30.6797C42.3399 30.543 42.1563 30.2969 41.9531 30.0703C42.5274 29.9883 42.8359 30.1016 43.418 30.1172C44.1172 30.1406 44.7266 30.0078 45.4727 29.9492C46.375 29.8672 46.8711 30.4023 47.75 30.5547C49.2578 30.8203 50.6953 29.6523 52.0977 29.5195C54.4649 29.3164 56.8711 29.6445 59.1797 29.3477C59.5742 29.2891 59.0781 29.5508 60.3477 29.4766C61.1797 29.4297 62.957 29.8203 63.3516 28.7617C63.6055 28.1016 62.5234 26.2656 62.0703 25.8047Z" fill="#E21E25"/>
</svg>
