<svg width="444" height="57" viewBox="0 0 444 57" fill="none" xmlns="http://www.w3.org/2000/svg">
<path d="M62.0703 25.8047C60.0742 23.7891 63.0899 23.9141 60.5508 23.6172C58.0039 23.3125 55.2852 24.2188 52.8164 24.0781C51.8281 24.0156 50.9688 23.8828 49.9727 24.0195C48.8867 24.1836 48.1367 24.0313 47.0547 24.0352C46.4609 24.0352 45.8789 24.082 45.2969 24.1523C45.9141 23.6836 46.5352 23.1953 47.25 22.7852C48.0508 22.7852 48.3789 21.9922 48.8516 21.6836C49.9844 21.5156 50.793 20.5781 51.4453 19.9375L51.9219 20.0938C52.2539 19.9375 52.4141 19.9375 52.5664 19.7812C52.8906 19.7812 52.8906 19.4648 53.2149 19.4648H53.3789C53.3789 18.8398 54.1836 18.9844 54.3477 18.5195C55.1563 18.3633 55.3125 17.4141 56.1133 17.4141C56.1133 17.4141 57.5742 16.9375 57.7344 16.3008C59.3399 15.8242 58.5664 16.5898 59.543 16.1094C59.7031 15.9531 59.8633 15.6406 59.8633 15.4805C59.543 15.1602 58.4063 13.7344 58.4063 13.2656V13.1055C58.0859 12.4727 57.6055 11.8437 56.957 11.6836C57.1094 11.3633 56.8008 11.0547 56.8008 10.7383V10.5742C56.3086 9.63281 55.8359 8.51953 54.6992 8.05469C54.2149 8.36719 53.5742 8.05469 53.082 8.36719C53.082 9.78516 51.1133 9.66406 50.3125 10.1406C50.3125 10.6133 49.3438 10.6133 49.3438 11.2578C48.5352 11.0938 48.5352 12.3594 47.8906 12.3594C47.7227 12.3594 47.5664 12.1953 47.4063 12.1953C46.2852 12.6719 44.9883 12.9883 44.1797 13.9375C43.6875 14.1016 43.5391 14.8828 43.0469 15.1953C42.7734 15.7539 42.1133 15.4492 41.625 15.4844C41.5781 15.4844 41.5391 15.5 41.5 15.5078C41.4649 15.5078 41.4609 15.5156 41.4336 15.5273C41.3281 15.4023 41.1836 15.3086 41.1406 15.1836C40.7305 14.5469 40.9297 13.6563 40.793 12.9883C41.1172 12.5117 41.1172 12.0391 41.1172 11.5586C41.1172 10.9297 41.1172 10.457 40.9531 9.82031C41.1172 9.19141 41.1172 8.40625 41.1172 7.77344C41.1172 4.92969 40.793 8.375 39.4961 6L39.668 5.84375C39.668 5.37109 39.1797 5.05078 39.1797 4.73828V4.58203C38.5352 4.58203 37.4063 1.89844 37.0859 1.26172C36.4375 1.26172 36.2813 0.628906 35.7852 0.628906C35.7852 0.3125 34.9883 0.3125 34.8242 -0.00390625L34.6602 0.3125C33.6875 0.3125 32.5625 2.68359 32.5625 3.47266C32.5625 4.10156 33.1992 4.73828 33.043 5.37109V5.53125C34.0117 6.16406 34.3359 7.27344 34.3359 8.21094C34.3359 8.6875 34.1758 8.26563 34.2227 8.61719C34.2734 8.93359 34.1992 8.73828 34.0117 8.87109V9.35547C34.0117 9.66406 33.8555 10.1406 34.1758 10.2891C34.1758 10.7773 34.0117 11.0937 34.0117 11.5586C34.0117 11.7187 34.1758 12.0391 34.1758 12.1953C34.0117 12.3594 34.0117 12.6719 34.0117 12.832C34.0117 13.457 34.0117 13.9375 33.5313 14.4141C33.5313 14.4141 33.375 14.7227 33.375 14.8828C33.375 15.1953 33.6875 15.5156 33.6875 15.8242C33.6875 16.3008 33.043 16.6172 33.1992 17.4141L32.8828 17.8828C32.8828 18.1992 33.043 18.5195 33.043 18.8398L32.8828 19.1445C33.043 20.4219 32.0781 21.207 31.9102 22.3086C31.9102 22.3086 31.9024 22.3203 31.9024 22.3242C31.8399 22.3086 31.7891 22.3086 31.7422 22.2891C30.9844 22.2891 30.7031 22.9648 30.2539 23.2695C30.1289 23.375 29.9336 23.4922 29.707 23.6172C29.5742 23.4961 29.4336 23.3633 29.3242 23.2266C29.1094 23.0664 28.9414 22.8164 28.8516 22.6211C27.2383 21.9922 25.9492 20.8906 24.3399 20.4219C23.8555 19.625 22.8867 19.1445 22.2383 18.5195C21.2656 18.6797 20.6211 17.5703 19.6484 17.4141C19.0078 17.1016 18.6875 16.1445 17.8828 16.3008C17.0703 15.3594 15.1289 13.9375 13.8477 13.9375C13.2031 12.6719 14.0859 14.2656 12.793 13.3203C12.6367 13.1602 12.4727 12.8398 12.1524 12.8398C11.5039 12.3633 10.6953 12.3633 10.2188 11.7305C10.0508 11.1094 9.40626 11.1094 8.91407 11.1094H8.10938C7.96485 11.418 7.46485 11.7305 7.46485 12.0508V12.3633H7.3047C7.46485 12.9961 6.9922 13.1602 6.9922 13.7891L7.3047 14.2656C7.3047 14.7383 7.96485 14.8984 8.28126 15.3672C9.08595 15.3672 9.40626 16.9453 10.3672 17.2617C10.5391 17.8984 11.3438 18.2148 11.5039 19.0078C12.4727 19.4766 14.1641 20.2578 14.8164 20.8906C15.9414 20.5781 16.2578 22.4687 17.3906 22.3086H17.7149L18.1992 22.6211C18.3672 22.6211 18.6875 22.4687 18.8516 22.6211C19.5391 23.7148 20.832 23.8672 21.8984 24.3906C21.4375 24.4297 20.9688 24.5664 20.5469 24.5664C19.5078 24.5664 18.4609 24.3594 17.4219 24.2734C15.9492 24.1523 14.7891 23.8359 13.3359 24.0781C12.082 24.2812 10.7617 24.4297 9.53126 24.5898C7.70704 24.8164 5.90235 25.0469 4.09767 25.3164C2.93751 25.4961 1.65626 24.5039 0.675791 25.3594C-0.171865 26.1094 -0.210928 27.3437 0.492198 28.2148C1.25782 29.1719 2.32813 29.3242 3.41017 29.7539C4.51954 30.1875 5.63673 30.4961 6.8086 30.5664C9.16407 30.7266 11.1211 31.2266 13.4883 30.8516C14.7578 30.6523 16.0977 30.6484 17.4297 30.6484C17.2852 30.7695 17.1094 30.8906 16.9102 31C16.4531 31 16.168 31.2969 15.9024 31.5938L14.7266 32.4727C13.6719 33.0156 12.1641 33.4609 12.1641 33.4609C11.6797 33.4609 11.1953 33.9336 10.707 33.9336H10.5508C10.2266 34.4023 9.42579 34.082 9.08985 34.5625C8.13282 34.4023 7.32813 35.0352 6.51173 35.3477C5.71095 35.5117 5.5547 36.6133 5.5547 37.2461C5.5547 37.8867 5.8711 38.5156 6.03126 38.9805C6.35157 39.7734 6.83595 39.6172 6.83595 39.9375V40.0938L7.16798 40.25L7.48048 40.0938C8.13282 40.7188 9.7461 43.0977 10.3867 43.25C10.8672 43.5703 11.5156 43.7266 12.1641 43.7266C12.6563 43.7266 15.4414 42.375 17.5313 41.3125L18.0508 41.0078C18.0508 41.0078 18.2461 40.8164 18.375 40.8008C18.5078 40.7813 18.6719 40.7188 18.6719 40.7188L18.9336 40.5703L19.1914 40.4297L19.5117 40.3047C19.5117 40.3047 19.8281 40.1797 19.9805 40.1641C20.6211 40.1406 20.9414 39.6914 21.4336 39.2227C22.3984 38.75 23.5234 38.1172 24.168 37.168C24.9844 37.168 25.4609 36.3711 26.1094 36.2188C26.4336 34.957 28.0391 35.2695 28.5352 34.3203C28.6797 34.2969 28.7852 34.3125 28.8633 34.3438L28.8711 34.3516V34.3438C28.8906 34.3555 28.9141 34.3672 28.9297 34.3789C28.9453 34.3867 28.9609 34.4023 28.9727 34.4258C29.2461 34.7188 28.9297 35.543 29.1719 35.8984C28.8516 36.0625 29.1719 36.5312 29.0078 36.8516C28.3633 37.4805 27.8867 38.2695 27.8867 39.2227V39.6914C27.2383 40.3242 26.9102 41.2773 26.5899 42.2305C26.75 43.0078 25.4609 43.1758 25.4609 44.1094L25.3008 44.2852C25.4609 44.4336 25.4609 44.7539 25.4609 44.8984C25.625 45.2227 25.625 45.5469 25.625 45.8594C25.625 46.6406 25.3008 47.2812 25.3008 48.0742C25.3008 48.3906 25.3008 48.5469 25.4609 48.8633C26.2695 49.1758 25.4609 50.2813 26.2695 50.4414C26.9102 50.918 27.2383 51.8555 28.0391 51.7109C28.2031 53.1328 30.1406 52.9687 30.3047 54.3984C31.1172 54.0703 31.2734 55.3438 32.0781 55.3438C32.4141 55.3438 32.2383 54.7148 32.4141 54.3984L32.0781 53.918C32.2383 53.2891 32.5625 52.9687 32.5625 52.4922C32.5625 52.3398 32.4141 52.0195 32.4141 51.8555C32.7266 51.5469 33.5313 49.3281 33.5313 48.8633V47.4414C33.8555 46.4922 34.6602 45.8594 34.8242 44.7539C35.1484 44.6016 35.3008 44.1094 35.3008 43.6484C35.3008 43.0078 35.1484 42.2305 35.7852 41.7578C35.6211 40.8008 36.1094 40.1641 36.1094 39.2227C36.1094 38.8945 36.1094 38.5859 35.9531 38.2695C36.6055 37.793 36.1094 36.3711 37.0859 35.8984L37.2383 35.4258C37.2383 35.3906 37.2461 35.2773 37.2539 35.1133C37.2656 34.9063 37.293 34.6172 37.3203 34.3086C37.8477 34.5469 38.2969 34.7656 38.5039 34.957H38.5352C39.0156 35.7383 40.1406 35.8984 40.9531 36.5312C42.082 37.3242 42.7305 37.0039 43.6875 37.6406L44.0234 37.4805C44.4961 37.4805 45.1445 38.2695 45.4727 38.2695L45.3125 38.4258C46.5977 39.0586 47.7227 39.6914 49.0274 40.3242C49.1758 40.3242 49.3438 40.3242 49.5078 40.4844C51.1133 41.7578 53.8594 43.3281 55.793 43.8086C55.9649 44.2852 56.6016 44.4336 56.7695 44.7539C57.4141 44.7539 57.5742 45.5469 58.2109 45.5469L58.5352 45.3906C58.7031 45.5469 59.1836 45.5469 59.3399 45.8594C59.5117 45.6992 59.668 45.3906 59.5117 45.0742V44.6016C58.2109 43.8086 57.7344 40.6367 57.082 39.8516C57.2461 38.8945 56.2774 38.2695 55.9649 37.4805C55.3125 37.4805 55.1563 36.8516 54.6641 36.8516H54.3477C53.8594 36.5312 53.0469 36.6914 53.0469 35.8984V35.7383C52.0859 34.957 51.4453 34.0117 50.6289 33.3789C50.3125 33.2148 50.1524 33.2148 49.9844 33.2148C49.668 33.2148 49.1758 33.3789 49.0274 33.5312C47.8906 33.6875 47.4063 32.5859 46.2852 32.5859C45.1445 31.7891 43.8555 31.3242 42.5703 30.6797C42.3399 30.543 42.1563 30.2969 41.9531 30.0703C42.5274 29.9883 42.8359 30.1016 43.418 30.1172C44.1172 30.1406 44.7266 30.0078 45.4727 29.9492C46.375 29.8672 46.8711 30.4023 47.75 30.5547C49.2578 30.8203 50.6953 29.6523 52.0977 29.5195C54.4649 29.3164 56.8711 29.6445 59.1797 29.3477C59.5742 29.2891 59.0781 29.5508 60.3477 29.4766C61.1797 29.4297 62.957 29.8203 63.3516 28.7617C63.6055 28.1016 62.5234 26.2656 62.0703 25.8047Z" fill="#E21E25"/>
<path d="M75.4297 52.0586H84.4688V4.79688H75.4297V52.0586Z" fill="#1C1C1A"/>
<path d="M93.5664 52.0586V4.79688H102.992L121.582 37.0117H121.715V4.79688H130.227V52.0586H121.52L102.207 18.4141H102.074V52.0586" fill="#1C1C1A"/>
<path d="M169.305 4.73047V12.3281H156.934V52.0586H147.902V12.3281H135.527V4.73047" fill="#1C1C1A"/>
<path d="M175.664 52.0586H184.695V4.79688H175.664V52.0586Z" fill="#1C1C1A"/>
<path d="M198.051 25.3984H201.941V5.05469H198.051V25.3984Z" fill="#4A4A4A"/>
<path d="M205.941 25.4023V10.7461H209.156V12.3203C210.453 11.4219 211.945 10.4609 213.664 10.4609C216.594 10.4609 218.004 12.3789 218.004 15.3672V25.4023H214.508V15.875C214.508 13.8984 213.891 13.2812 212.703 13.2812C211.184 13.2812 210.027 14.1523 209.438 14.832V25.4023" fill="#4A4A4A"/>
<path d="M221.613 10.7461V5.89453H225.109V10.7461H227.984V13.5625H225.109V21.8477C225.109 22.6406 225.504 22.8633 226.375 22.8633C226.91 22.8633 227.477 22.6953 227.984 22.5781V25.457C227.02 25.5664 226.176 25.6836 225.219 25.6836C222.629 25.6836 221.613 24.3867 221.613 22.3008V13.5625H219.586V10.7461" fill="#4A4A4A"/>
<path d="M237.871 16.2695C237.82 14.2421 236.746 13.0546 235.059 13.0546C233.363 13.0546 232.293 14.2421 232.234 16.2695H237.871ZM232.234 18.6366C232.293 21.6796 233.648 22.8632 235.281 22.8632C236.914 22.8632 237.676 22.1288 238.551 21.1171L241.09 22.6952C239.738 24.7773 237.762 25.6835 234.941 25.6835C231.137 25.6835 228.742 22.7226 228.742 18.0702C228.742 13.4218 231.137 10.4609 235.113 10.4609C238.941 10.4335 241.09 13.6757 241.09 17.1991V18.6366" fill="#4A4A4A"/>
<path d="M243.172 25.4023V10.7461H246.387V13.2539H246.441C247.289 11.5078 248.469 10.5195 250.555 10.4609V14.1523C250.387 14.1289 250.191 14.1289 249.938 14.1289C248.191 14.1289 246.664 16.125 246.664 16.4922V25.4023" fill="#4A4A4A"/>
<path d="M252.219 25.4023V10.7461H255.434V12.3203C256.727 11.4219 258.223 10.4609 259.941 10.4609C262.871 10.4609 264.281 12.3789 264.281 15.3672V25.4023H260.789V15.875C260.789 13.8984 260.164 13.2812 258.984 13.2812C257.461 13.2812 256.305 14.1523 255.715 14.832V25.4023" fill="#4A4A4A"/>
<path d="M274.43 18.3829C272.086 18.836 269.527 19.3126 269.527 21.3712C269.527 22.4689 270.23 23.0899 271.211 23.0899C272.316 23.0899 273.695 22.1603 274.43 21.5392V18.3829ZM274.797 25.3985L274.566 24.1329C273.16 25.0899 271.836 25.6837 270.004 25.6837C267.355 25.6837 266.031 23.7931 266.031 21.7892C266.031 18.4689 268.738 16.7189 274.43 16.0431V14.8009C274.43 13.6759 273.527 13.0548 272.285 13.0548C270.648 13.0548 269.75 13.9298 269.074 14.8595L266.82 13.1407C267.719 11.5939 270.145 10.4064 272.285 10.461C276.234 10.547 277.922 11.9845 277.922 16.3829V23.2892C277.922 24.0196 277.98 24.7501 278.203 25.3985" fill="#4A4A4A"/>
<path d="M281.418 10.7461V5.89453H284.91V10.7461H287.785V13.5625H284.91V21.8477C284.91 22.6406 285.305 22.8633 286.18 22.8633C286.715 22.8633 287.281 22.6953 287.785 22.5781V25.457C286.828 25.5664 285.988 25.6836 285.027 25.6836C282.434 25.6836 281.418 24.3867 281.418 22.3008V13.5625H279.391V10.7461" fill="#4A4A4A"/>
<path d="M293.539 25.3984H290.043V10.7422H293.539V25.3984ZM290.043 4.76953H293.539V8.03906H290.043V4.76953Z" fill="#4A4A4A"/>
<path d="M302.191 13.2812C300.246 13.2812 299.312 14.8047 299.312 18.0703C299.312 21.3437 300.246 22.8633 302.191 22.8633C304.137 22.8633 305.066 21.3437 305.066 18.0703C305.066 14.8047 304.137 13.2812 302.191 13.2812ZM302.191 10.4609C306.164 10.4609 308.559 13.4219 308.559 18.0703C308.559 22.7227 306.164 25.6836 302.191 25.6836C298.219 25.6836 295.82 22.7227 295.82 18.0703C295.82 13.4219 298.219 10.4609 302.191 10.4609Z" fill="#4A4A4A"/>
<path d="M310.477 25.4023V10.7461H313.691V12.3203C314.988 11.4219 316.48 10.4609 318.199 10.4609C321.129 10.4609 322.539 12.3789 322.539 15.3672V25.4023H319.039V15.875C319.039 13.8984 318.422 13.2812 317.238 13.2812C315.715 13.2812 314.562 14.1523 313.969 14.832V25.4023" fill="#4A4A4A"/>
<path d="M332.684 18.3829C330.348 18.836 327.781 19.3126 327.781 21.3712C327.781 22.4689 328.484 23.0899 329.473 23.0899C330.57 23.0899 331.949 22.1603 332.684 21.5392V18.3829ZM333.051 25.3985L332.824 24.1329C331.414 25.0899 330.094 25.6837 328.258 25.6837C325.613 25.6837 324.285 23.7931 324.285 21.7892C324.285 18.4689 326.992 16.7189 332.684 16.0431V14.8009C332.684 13.6759 331.777 13.0548 330.543 13.0548C328.91 13.0548 328.004 13.9298 327.332 14.8595L325.074 13.1407C325.973 11.5939 328.402 10.4064 330.543 10.461C334.488 10.547 336.18 11.9845 336.18 16.3829V23.2892C336.18 24.0196 336.234 24.7501 336.457 25.3985" fill="#4A4A4A"/>
<path d="M339.477 25.3984H342.977V5.05469H339.477V25.3984Z" fill="#4A4A4A"/>
<path d="M209.41 30.8047H213.297V43.543C213.297 49.4922 209.633 51.4336 205.488 51.4336C201.348 51.4336 197.684 49.4922 197.684 43.543V30.8047H201.574V43.7148C201.574 47.0117 202.867 48.168 205.488 48.168C208.113 48.168 209.41 47.0117 209.41 43.7148" fill="#4A4A4A"/>
<path d="M216.906 51.1562V36.4961H220.121V38.0781C221.414 37.1758 222.906 36.2188 224.625 36.2188C227.559 36.2188 228.969 38.1328 228.969 41.1211V51.1562H225.473V41.6289C225.473 39.6523 224.852 39.0352 223.672 39.0352C222.148 39.0352 220.992 39.9062 220.398 40.5859V51.1562" fill="#4A4A4A"/>
<path d="M235.871 51.1562H232.379V36.5H235.871V51.1562ZM232.379 30.5234H235.871V33.793H232.379V30.5234Z" fill="#4A4A4A"/>
<path d="M237.762 36.5H241.258L243.68 46.4219H243.734L246.215 36.5H249.711L245.512 51.1562H241.848" fill="#4A4A4A"/>
<path d="M259.238 42.0234C259.18 39.9961 258.105 38.8086 256.418 38.8086C254.727 38.8086 253.656 39.9961 253.602 42.0234H259.238ZM253.602 44.3906C253.656 47.4336 255.012 48.6172 256.645 48.6172C258.277 48.6172 259.039 47.8867 259.914 46.8711L262.449 48.4492C261.098 50.5312 259.125 51.4375 256.305 51.4375C252.504 51.4375 250.105 48.4765 250.105 43.8242C250.105 39.1758 252.504 36.2187 256.477 36.2187C260.309 36.1875 262.449 39.4297 262.449 42.9531V44.3906" fill="#4A4A4A"/>
<path d="M264.535 51.1562V36.4961H267.746V39.0078H267.805C268.648 37.2617 269.836 36.2734 271.918 36.2188V39.9062C271.746 39.8828 271.551 39.8828 271.301 39.8828C269.551 39.8828 268.031 41.8828 268.031 42.2461V51.1562" fill="#4A4A4A"/>
<path d="M280.711 40.3594C280.008 39.6016 279.078 38.8086 277.977 38.8086C276.625 38.8086 276.004 39.3711 276.004 40.25C276.004 42.7539 283.336 41.6836 283.336 47.0391C283.336 50.082 281.023 51.4336 277.953 51.4336C275.609 51.4336 273.695 50.3906 272.398 48.4766L274.738 46.7305C275.555 47.8555 276.656 48.8398 278.152 48.8398C279.387 48.8398 280.23 48.1641 280.23 47.1797C280.23 44.6719 272.906 45.5742 272.906 40.4727C272.906 37.7383 275.219 36.2188 277.754 36.2188C279.699 36.2188 281.645 36.9492 282.914 38.4453" fill="#4A4A4A"/>
<path d="M289.395 51.1562H285.898V36.5H289.395V51.1562ZM285.898 30.5234H289.395V33.793H285.898V30.5234Z" fill="#4A4A4A"/>
<path d="M293.367 36.5V31.6484H296.859V36.5H299.734V39.3164H296.859V47.6055C296.859 48.3906 297.254 48.6172 298.133 48.6172C298.664 48.6172 299.23 48.4492 299.734 48.332V51.2109C298.777 51.3203 297.934 51.4336 296.973 51.4336C294.383 51.4336 293.367 50.1406 293.367 48.0547V39.3164H291.34V36.5" fill="#4A4A4A"/>
<path d="M300.102 53.5234C300.641 53.6367 301.063 53.6367 301.566 53.6367C302.777 53.6367 303.453 53.2969 303.879 52.4766C304.215 51.7773 304.445 51.3516 304.445 50.7578C304.445 50.2227 304.164 49.6016 303.992 49.0117L300.074 36.5H303.598L306.02 45.5156H306.078L308.59 36.5H312.082L307.457 51.1836C305.91 55.3828 304.668 56.5117 301.793 56.5117C300.949 56.5117 300.527 56.4531 300.102 56.3984" fill="#4A4A4A"/>
<path d="M322.227 38.3008C323.637 37.3984 325.27 35.8789 325.27 34.3281C325.27 33.0586 324.254 32.2734 323.242 32.2734C321.746 32.2734 321.043 33.5078 321.043 34.6641C321.043 35.9922 321.773 37.457 322.227 38.3008ZM322.34 49.5195C324.141 49.5195 325.469 48.7852 326.453 47.8281C324.598 45.6836 322.789 43.375 321.324 41.0078C319.691 42.0781 318.223 43.2617 318.223 45.7422C318.223 48.3086 320.363 49.5195 322.34 49.5195ZM331.527 41.3477C331.133 43.4336 330.23 45.9688 329.246 47.4062C330.117 48.3359 331.863 49.125 332.598 49.125V51.1523H331.863C330.852 51.1523 329.047 50.2539 327.863 49.125C326.512 50.5898 324.707 51.4336 322.059 51.4336C318.898 51.4336 315.969 49.1523 315.969 45.6016C315.969 42.8398 318.254 40.8125 320.395 39.457C319.574 38.2461 318.785 36.2188 318.785 34.582C318.785 32.2734 320.535 30.5234 323.355 30.5234C325.664 30.5234 327.523 31.875 327.523 34.3008C327.523 36.668 325.102 38.5273 323.242 39.8828C324.598 42.3047 326.398 44.4453 327.836 46.0234C328.48 45.1797 329.301 43.0664 329.668 40.8945" fill="#4A4A4A"/>
<path d="M348.523 36.7227C347.957 35.0039 346.746 33.793 344.828 33.793C342.238 33.793 340.66 36.2187 340.66 40.9805C340.602 45.7422 342.012 48.168 344.941 48.168C346.691 48.168 347.762 47.5469 348.914 45.1523L352.523 46.1094C351.312 49.6328 348.664 51.4336 344.941 51.4336C339.758 51.4336 336.77 47.6289 336.77 40.9805C336.77 34.3281 339.758 30.5234 344.941 30.5234C348.832 30.5234 351.086 32.2734 352.043 35.8789" fill="#4A4A4A"/>
<path d="M359.625 39.0312C357.68 39.0312 356.75 40.5586 356.75 43.8242C356.75 47.0977 357.68 48.6172 359.625 48.6172C361.57 48.6172 362.5 47.0977 362.5 43.8242C362.5 40.5586 361.57 39.0312 359.625 39.0312ZM359.625 36.2188C363.598 36.2188 365.992 39.1758 365.992 43.8242C365.992 48.4766 363.598 51.4336 359.625 51.4336C355.652 51.4336 353.258 48.4766 353.258 43.8242C353.258 39.1758 355.652 36.2188 359.625 36.2188Z" fill="#4A4A4A"/>
<path d="M368.277 51.1562H371.773V30.8047H368.277V51.1562Z" fill="#4A4A4A"/>
<path d="M375.551 51.1562H379.043V30.8047H375.551V51.1562Z" fill="#4A4A4A"/>
<path d="M390.457 42.0234C390.402 39.9961 389.328 38.8086 387.641 38.8086C385.949 38.8086 384.879 39.9961 384.82 42.0234H390.457ZM384.82 44.3906C384.879 47.4336 386.23 48.6172 387.863 48.6172C389.496 48.6172 390.262 47.8867 391.133 46.8711L393.668 48.4492C392.32 50.5312 390.348 51.4375 387.527 51.4375C383.723 51.4375 381.328 48.4765 381.328 43.8242C381.328 39.1758 383.723 36.2187 387.695 36.2187C391.531 36.1875 393.668 39.4297 393.668 42.9531V44.3906" fill="#4A4A4A"/>
<path d="M400.859 38.8085C399.363 38.8085 398.32 39.8827 398.32 41.2343C398.32 42.5859 399.363 43.6562 400.859 43.6562C402.18 43.6562 403.254 42.5859 403.254 41.2343C403.254 39.8827 402.18 38.8085 400.859 38.8085ZM397.727 52.5624C397.727 53.6913 398.687 54.1952 401.617 54.1952C403.871 54.1952 404.637 53.0702 404.637 52.5624C404.637 51.8866 403.59 50.871 400.211 50.871C398.293 50.871 397.727 51.9413 397.727 52.5624ZM407.934 38.5819C407.117 38.5819 406.215 38.5819 405.676 38.9218C406.125 39.5429 406.465 40.3905 406.465 41.5155C406.465 44.2773 404.609 46.2499 400.941 46.2499C399.422 46.2499 398.207 46.3085 398.207 47.1523C398.207 49.5194 407.852 46.3085 407.852 52.1718C407.852 54.2577 405.73 56.5116 401.055 56.5116C397.113 56.5116 394.516 55.3241 394.516 53.0155C394.516 51.1835 395.898 50.3085 397.164 50.3085V50.2538C396.488 49.828 394.996 49.4648 394.996 47.8866C394.996 46.4765 396.629 45.4023 397.277 45.2069C396.066 44.2226 395.109 43.0976 395.109 41.3163C395.109 38.7499 397.082 36.2187 400.887 36.2187C402.125 36.2187 403.59 36.7226 404.496 37.5116C405.168 36.6132 406.27 36.1601 407.934 36.2187" fill="#4A4A4A"/>
<path d="M417.512 42.0234C417.461 39.9961 416.387 38.8086 414.695 38.8086C413.004 38.8086 411.938 39.9961 411.875 42.0234H417.512ZM411.875 44.3906C411.938 47.4336 413.289 48.6172 414.922 48.6172C416.555 48.6172 417.32 47.8867 418.191 46.8711L420.727 48.4492C419.371 50.5312 417.402 51.4375 414.582 51.4375C410.777 51.4375 408.383 48.4765 408.383 43.8242C408.383 39.1758 410.777 36.2187 414.75 36.2187C418.586 36.1875 420.727 39.4297 420.727 42.9531V44.3906" fill="#4A4A4A"/>
<path d="M430.164 40.3594C429.465 39.6016 428.531 38.8086 427.434 38.8086C426.082 38.8086 425.461 39.3711 425.461 40.25C425.461 42.7539 432.789 41.6836 432.789 47.0391C432.789 50.082 430.48 51.4336 427.406 51.4336C425.07 51.4336 423.148 50.3906 421.852 48.4766L424.195 46.7305C425.012 47.8555 426.109 48.8398 427.605 48.8398C428.844 48.8398 429.695 48.1641 429.695 47.1797C429.695 44.6719 422.363 45.5742 422.363 40.4727C422.363 37.7383 424.676 36.2188 427.211 36.2188C429.152 36.2188 431.102 36.9492 432.367 38.4453" fill="#4A4A4A"/>
<path d="M443.039 41.0664L442.879 38.4453C442.863 38.0977 442.863 37.6719 442.848 37.1953H442.797C442.68 37.5898 442.535 38.1133 442.426 38.5234L441.617 41.0039H440.699L439.891 38.457C439.812 38.1328 439.68 37.5898 439.586 37.1953H439.531C439.531 37.6055 439.52 38.0312 439.5 38.4453L439.34 41.0664H438.48L438.816 36.6055H440.141L440.91 38.7852C441.023 39.1328 441.09 39.457 441.207 39.918H441.223C441.34 39.5312 441.438 39.1328 441.531 38.8203L442.305 36.6055H443.586L443.93 41.0664H443.039ZM438.223 36.6055V37.3477H436.793V41.0664H435.906V37.3477H434.496V36.6055" fill="#1C1C1A"/>
</svg>
