<svg width="453" height="82" viewBox="0 0 453 82" fill="none" xmlns="http://www.w3.org/2000/svg">
<path d="M62.0709 25.8086C60.0748 23.793 63.0904 23.918 60.5513 23.6211C58.0045 23.3164 55.2857 24.2227 52.817 24.082C51.8287 24.0195 50.9693 23.8867 49.9732 24.0234C48.8873 24.1875 48.1373 24.0352 47.0552 24.0391C46.4615 24.0391 45.8795 24.0859 45.2974 24.1562C45.9146 23.6875 46.5357 23.1992 47.2506 22.7891C48.0513 22.7891 48.3795 21.9961 48.8521 21.6875C49.9849 21.5195 50.7935 20.582 51.4459 19.9414L51.9224 20.0977C52.2545 19.9414 52.4146 19.9414 52.567 19.7852C52.8912 19.7852 52.8912 19.4688 53.2154 19.4688H53.3795C53.3795 18.8438 54.1842 18.9883 54.3482 18.5234C55.1568 18.3672 55.3131 17.418 56.1138 17.418C56.1138 17.418 57.5748 16.9414 57.7349 16.3047C59.3404 15.8281 58.567 16.5938 59.5435 16.1133C59.7037 15.957 59.8638 15.6445 59.8638 15.4844C59.5435 15.1641 58.4068 13.7383 58.4068 13.2695V13.1094C58.0865 12.4766 57.606 11.8477 56.9576 11.6875C57.1099 11.3672 56.8013 11.0586 56.8013 10.7422V10.5781C56.3092 9.63672 55.8365 8.52344 54.6998 8.05859C54.2154 8.37109 53.5748 8.05859 53.0826 8.37109C53.0826 9.78906 51.1138 9.66797 50.3131 10.1445C50.3131 10.6172 49.3443 10.6172 49.3443 11.2617C48.5357 11.0977 48.5357 12.3633 47.8912 12.3633C47.7232 12.3633 47.567 12.1992 47.4068 12.1992C46.2857 12.6758 44.9888 12.9922 44.1802 13.9414C43.6881 14.1055 43.5396 14.8867 43.0474 15.1992C42.774 15.7578 42.1138 15.4531 41.6256 15.4883C41.5787 15.4883 41.5396 15.5039 41.5006 15.5117C41.4654 15.5117 41.4615 15.5195 41.4342 15.5312C41.3287 15.4062 41.1842 15.3125 41.1412 15.1875C40.731 14.5508 40.9302 13.6602 40.7935 12.9922C41.1177 12.5156 41.1177 12.043 41.1177 11.5625C41.1177 10.9336 41.1177 10.4609 40.9537 9.82422C41.1177 9.19531 41.1177 8.41016 41.1177 7.77734C41.1177 4.93359 40.7935 8.37891 39.4967 6.00391L39.6685 5.84766C39.6685 5.375 39.1802 5.05469 39.1802 4.74219V4.58594C38.5357 4.58594 37.4068 1.90234 37.0865 1.26563C36.4381 1.26563 36.2818 0.632812 35.7857 0.632812C35.7857 0.316406 34.9888 0.316406 34.8248 0L34.6607 0.316406C33.6881 0.316406 32.5631 2.6875 32.5631 3.47656C32.5631 4.10547 33.1998 4.74219 33.0435 5.375V5.53516C34.0123 6.16797 34.3365 7.27734 34.3365 8.21484C34.3365 8.69141 34.1763 8.26953 34.2232 8.62109C34.274 8.9375 34.1998 8.74219 34.0123 8.875V9.35938C34.0123 9.66797 33.856 10.1445 34.1763 10.293C34.1763 10.7813 34.0123 11.0977 34.0123 11.5625C34.0123 11.7227 34.1763 12.043 34.1763 12.1992C34.0123 12.3633 34.0123 12.6758 34.0123 12.8359C34.0123 13.4609 34.0123 13.9414 33.5318 14.418C33.5318 14.418 33.3756 14.7266 33.3756 14.8867C33.3756 15.1992 33.6881 15.5195 33.6881 15.8281C33.6881 16.3047 33.0435 16.6211 33.1998 17.418L32.8834 17.8867C32.8834 18.2031 33.0435 18.5234 33.0435 18.8438L32.8834 19.1484C33.0435 20.4258 32.0787 21.2109 31.9107 22.3125C31.9107 22.3125 31.9029 22.3242 31.9029 22.3281C31.8404 22.3125 31.7896 22.3125 31.7427 22.293C30.9849 22.293 30.7037 22.9688 30.2545 23.2734C30.1295 23.3789 29.9342 23.4961 29.7076 23.6211C29.5748 23.5 29.4342 23.3672 29.3248 23.2305C29.1099 23.0703 28.942 22.8203 28.8521 22.625C27.2388 21.9961 25.9498 20.8945 24.3404 20.4258C23.856 19.6289 22.8873 19.1484 22.2388 18.5234C21.2662 18.6836 20.6217 17.5742 19.649 17.418C19.0084 17.1055 18.6881 16.1484 17.8834 16.3047C17.0709 15.3633 15.1295 13.9414 13.8482 13.9414C13.2037 12.6758 14.0865 14.2695 12.7935 13.3242C12.6373 13.1641 12.4732 12.8438 12.1529 12.8438C11.5045 12.3672 10.6959 12.3672 10.2193 11.7344C10.0513 11.1133 9.40681 11.1133 8.91462 11.1133H8.10993C7.9654 11.4219 7.4654 11.7344 7.4654 12.0547V12.3672H7.30525C7.4654 13 6.99275 13.1641 6.99275 13.793L7.30525 14.2695C7.30525 14.7422 7.9654 14.9023 8.28181 15.3711C9.0865 15.3711 9.40681 16.9492 10.3677 17.2656C10.5396 17.9023 11.3443 18.2187 11.5045 19.0117C12.4732 19.4805 14.1646 20.2617 14.817 20.8945C15.942 20.582 16.2584 22.4727 17.3912 22.3125H17.7154L18.1998 22.625C18.3677 22.625 18.6881 22.4727 18.8521 22.625C19.5396 23.7188 20.8326 23.8711 21.899 24.3945C21.4381 24.4336 20.9693 24.5703 20.5474 24.5703C19.5084 24.5703 18.4615 24.3633 17.4224 24.2773C15.9498 24.1562 14.7896 23.8398 13.3365 24.082C12.0826 24.2852 10.7623 24.4336 9.53181 24.5938C7.70759 24.8203 5.9029 25.0508 4.09821 25.3203C2.93806 25.5 1.65681 24.5078 0.67634 25.3633C-0.171316 26.1133 -0.210379 27.3477 0.492747 28.2188C1.25837 29.1758 2.32868 29.3281 3.41071 29.7578C4.52009 30.1914 5.63728 30.5 6.80915 30.5703C9.16462 30.7305 11.1217 31.2305 13.4888 30.8555C14.7584 30.6562 16.0982 30.6523 17.4302 30.6523C17.2857 30.7734 17.1099 30.8945 16.9107 31.0039C16.4537 31.0039 16.1685 31.3008 15.9029 31.5977L14.7271 32.4766C13.6724 33.0195 12.1646 33.4648 12.1646 33.4648C11.6802 33.4648 11.1959 33.9375 10.7076 33.9375H10.5513C10.2271 34.4062 9.42634 34.0859 9.0904 34.5664C8.13337 34.4063 7.32868 35.0391 6.51228 35.3516C5.7115 35.5156 5.55525 36.6172 5.55525 37.25C5.55525 37.8906 5.87165 38.5195 6.03181 38.9844C6.35212 39.7773 6.8365 39.6211 6.8365 39.9414V40.0977L7.16853 40.2539L7.48103 40.0977C8.13337 40.7227 9.74665 43.1016 10.3873 43.2539C10.8677 43.5742 11.5162 43.7305 12.1646 43.7305C12.6568 43.7305 15.442 42.3789 17.5318 41.3164L18.0513 41.0117C18.0513 41.0117 18.2467 40.8203 18.3756 40.8047C18.5084 40.7852 18.6724 40.7227 18.6724 40.7227L18.9342 40.5742L19.192 40.4336L19.5123 40.3086C19.5123 40.3086 19.8287 40.1836 19.981 40.168C20.6217 40.1445 20.942 39.6953 21.4342 39.2266C22.399 38.7539 23.524 38.1211 24.1685 37.1719C24.9849 37.1719 25.4615 36.375 26.1099 36.2227C26.4342 34.9609 28.0396 35.2734 28.5357 34.3242C28.6802 34.3008 28.7857 34.3164 28.8638 34.3477L28.8717 34.3555V34.3477C28.8912 34.3594 28.9146 34.3711 28.9302 34.3828C28.9459 34.3906 28.9615 34.4063 28.9732 34.4297C29.2467 34.7227 28.9302 35.5469 29.1724 35.9023C28.8521 36.0664 29.1724 36.5352 29.0084 36.8555C28.3638 37.4844 27.8873 38.2734 27.8873 39.2266V39.6953C27.2388 40.3281 26.9107 41.2812 26.5904 42.2344C26.7506 43.0117 25.4615 43.1797 25.4615 44.1133L25.3013 44.2891C25.4615 44.4375 25.4615 44.7578 25.4615 44.9023C25.6256 45.2266 25.6256 45.5508 25.6256 45.8633C25.6256 46.6445 25.3013 47.2852 25.3013 48.0781C25.3013 48.3945 25.3013 48.5508 25.4615 48.8672C26.2701 49.1797 25.4615 50.2852 26.2701 50.4453C26.9107 50.9219 27.2388 51.8594 28.0396 51.7148C28.2037 53.1367 30.1412 52.9727 30.3052 54.4023C31.1177 54.0742 31.274 55.3477 32.0787 55.3477C32.4146 55.3477 32.2388 54.7187 32.4146 54.4023L32.0787 53.9219C32.2388 53.293 32.5631 52.9727 32.5631 52.4961C32.5631 52.3437 32.4146 52.0234 32.4146 51.8594C32.7271 51.5508 33.5318 49.332 33.5318 48.8672V47.4453C33.856 46.4961 34.6607 45.8633 34.8248 44.7578C35.149 44.6055 35.3013 44.1133 35.3013 43.6523C35.3013 43.0117 35.149 42.2344 35.7857 41.7617C35.6217 40.8047 36.1099 40.168 36.1099 39.2266C36.1099 38.8984 36.1099 38.5898 35.9537 38.2734C36.606 37.7969 36.1099 36.375 37.0865 35.9023L37.2388 35.4297C37.2388 35.3945 37.2467 35.2813 37.2545 35.1172C37.2662 34.9102 37.2935 34.6211 37.3209 34.3125C37.8482 34.5508 38.2974 34.7695 38.5045 34.9609H38.5357C39.0162 35.7422 40.1412 35.9023 40.9537 36.5352C42.0826 37.3281 42.731 37.0078 43.6881 37.6445L44.024 37.4844C44.4967 37.4844 45.1451 38.2734 45.4732 38.2734L45.3131 38.4297C46.5982 39.0625 47.7232 39.6953 49.0279 40.3281C49.1763 40.3281 49.3443 40.3281 49.5084 40.4883C51.1138 41.7617 53.8599 43.332 55.7935 43.8125C55.9654 44.2891 56.6021 44.4375 56.7701 44.7578C57.4146 44.7578 57.5748 45.5508 58.2115 45.5508L58.5357 45.3945C58.7037 45.5508 59.1842 45.5508 59.3404 45.8633C59.5123 45.7031 59.6685 45.3945 59.5123 45.0781V44.6055C58.2115 43.8125 57.7349 40.6406 57.0826 39.8555C57.2467 38.8984 56.2779 38.2734 55.9654 37.4844C55.3131 37.4844 55.1568 36.8555 54.6646 36.8555H54.3482C53.8599 36.5352 53.0474 36.6953 53.0474 35.9023V35.7422C52.0865 34.9609 51.4459 34.0156 50.6295 33.3828C50.3131 33.2188 50.1529 33.2188 49.9849 33.2188C49.6685 33.2188 49.1763 33.3828 49.0279 33.5352C47.8912 33.6914 47.4068 32.5898 46.2857 32.5898C45.1451 31.793 43.856 31.3281 42.5709 30.6836C42.3404 30.5469 42.1568 30.3008 41.9537 30.0742C42.5279 29.9922 42.8365 30.1055 43.4185 30.1211C44.1177 30.1445 44.7271 30.0117 45.4732 29.9531C46.3756 29.8711 46.8717 30.4062 47.7506 30.5586C49.2584 30.8242 50.6959 29.6563 52.0982 29.5234C54.4654 29.3203 56.8717 29.6484 59.1802 29.3516C59.5748 29.293 59.0787 29.5547 60.3482 29.4805C61.1802 29.4336 62.9576 29.8242 63.3521 28.7656C63.606 28.1055 62.524 26.2695 62.0709 25.8086Z" fill="#E21E25"/>
<path d="M75.4302 52.0625H84.4693V4.80078H75.4302V52.0625Z" fill="#FAFAFA"/>
<path d="M93.567 52.0625V4.80078H102.993L121.583 37.0156H121.715V4.80078H130.227V52.0625H121.52L102.208 18.418H102.075V52.0625" fill="#FAFAFA"/>
<path d="M169.305 4.73438V12.332H156.934V52.0625H147.903V12.332H135.528V4.73438" fill="#FAFAFA"/>
<path d="M175.665 52.0625H184.696V4.80078H175.665V52.0625Z" fill="#FAFAFA"/>
<path d="M198.051 25.4023H201.942V5.05859H198.051V25.4023Z" fill="#EEEEEE"/>
<path d="M205.942 25.4062V10.75H209.157V12.3242C210.454 11.4258 211.946 10.4648 213.665 10.4648C216.594 10.4648 218.004 12.3828 218.004 15.3711V25.4062H214.508V15.8789C214.508 13.9023 213.891 13.2852 212.704 13.2852C211.184 13.2852 210.028 14.1562 209.438 14.8359V25.4062" fill="#EEEEEE"/>
<path d="M221.614 10.75V5.89844H225.11V10.75H227.985V13.5664H225.11V21.8516C225.11 22.6445 225.504 22.8672 226.376 22.8672C226.911 22.8672 227.477 22.6992 227.985 22.582V25.4609C227.02 25.5703 226.176 25.6875 225.219 25.6875C222.629 25.6875 221.614 24.3906 221.614 22.3047V13.5664H219.586V10.75" fill="#EEEEEE"/>
<path d="M237.872 16.2734C237.821 14.246 236.747 13.0585 235.059 13.0585C233.364 13.0585 232.294 14.246 232.235 16.2734H237.872ZM232.235 18.6406C232.294 21.6835 233.649 22.8671 235.282 22.8671C236.915 22.8671 237.676 22.1327 238.551 21.121L241.09 22.6991C239.739 24.7812 237.762 25.6874 234.942 25.6874C231.137 25.6874 228.743 22.7265 228.743 18.0741C228.743 13.4257 231.137 10.4648 235.114 10.4648C238.942 10.4374 241.09 13.6796 241.09 17.2031V18.6406" fill="#EEEEEE"/>
<path d="M243.172 25.4062V10.75H246.387V13.2578H246.442C247.29 11.5117 248.469 10.5234 250.555 10.4648V14.1562C250.387 14.1328 250.192 14.1328 249.938 14.1328C248.192 14.1328 246.665 16.1289 246.665 16.4961V25.4062" fill="#EEEEEE"/>
<path d="M252.219 25.4062V10.75H255.434V12.3242C256.727 11.4258 258.223 10.4648 259.942 10.4648C262.872 10.4648 264.282 12.3828 264.282 15.3711V25.4062H260.79V15.8789C260.79 13.9023 260.165 13.2852 258.985 13.2852C257.461 13.2852 256.305 14.1562 255.715 14.8359V25.4062" fill="#EEEEEE"/>
<path d="M274.43 18.3868C272.086 18.8399 269.528 19.3165 269.528 21.3751C269.528 22.4728 270.231 23.0939 271.211 23.0939C272.317 23.0939 273.696 22.1642 274.43 21.5431V18.3868ZM274.797 25.4024L274.567 24.1368C273.161 25.0939 271.836 25.6876 270.004 25.6876C267.356 25.6876 266.032 23.797 266.032 21.7931C266.032 18.4728 268.739 16.7228 274.43 16.047V14.8048C274.43 13.6798 273.528 13.0587 272.286 13.0587C270.649 13.0587 269.751 13.9337 269.075 14.8634L266.821 13.1446C267.719 11.5978 270.145 10.4103 272.286 10.465C276.235 10.5509 277.922 11.9884 277.922 16.3868V23.2931C277.922 24.0235 277.981 24.754 278.204 25.4024" fill="#EEEEEE"/>
<path d="M281.419 10.75V5.89844H284.911V10.75H287.786V13.5664H284.911V21.8516C284.911 22.6445 285.305 22.8672 286.18 22.8672C286.715 22.8672 287.282 22.6992 287.786 22.582V25.4609C286.829 25.5703 285.989 25.6875 285.028 25.6875C282.434 25.6875 281.419 24.3906 281.419 22.3047V13.5664H279.391V10.75" fill="#EEEEEE"/>
<path d="M293.54 25.4023H290.044V10.7461H293.54V25.4023ZM290.044 4.77344H293.54V8.04297H290.044V4.77344Z" fill="#EEEEEE"/>
<path d="M302.192 13.2852C300.247 13.2852 299.313 14.8086 299.313 18.0742C299.313 21.3477 300.247 22.8672 302.192 22.8672C304.137 22.8672 305.067 21.3477 305.067 18.0742C305.067 14.8086 304.137 13.2852 302.192 13.2852ZM302.192 10.4648C306.165 10.4648 308.559 13.4258 308.559 18.0742C308.559 22.7266 306.165 25.6875 302.192 25.6875C298.219 25.6875 295.821 22.7266 295.821 18.0742C295.821 13.4258 298.219 10.4648 302.192 10.4648Z" fill="#EEEEEE"/>
<path d="M310.477 25.4062V10.75H313.692V12.3242C314.989 11.4258 316.481 10.4648 318.2 10.4648C321.129 10.4648 322.54 12.3828 322.54 15.3711V25.4062H319.04V15.8789C319.04 13.9023 318.422 13.2852 317.239 13.2852C315.715 13.2852 314.563 14.1562 313.969 14.8359V25.4062" fill="#EEEEEE"/>
<path d="M332.684 18.3868C330.348 18.8399 327.782 19.3165 327.782 21.3751C327.782 22.4728 328.485 23.0939 329.473 23.0939C330.571 23.0939 331.95 22.1642 332.684 21.5431V18.3868ZM333.051 25.4024L332.825 24.1368C331.415 25.0939 330.094 25.6876 328.258 25.6876C325.614 25.6876 324.286 23.797 324.286 21.7931C324.286 18.4728 326.993 16.7228 332.684 16.047V14.8048C332.684 13.6798 331.778 13.0587 330.544 13.0587C328.911 13.0587 328.004 13.9337 327.333 14.8634L325.075 13.1446C325.973 11.5978 328.403 10.4103 330.544 10.465C334.489 10.5509 336.18 11.9884 336.18 16.3868V23.2931C336.18 24.0235 336.235 24.754 336.458 25.4024" fill="#EEEEEE"/>
<path d="M339.477 25.4023H342.977V5.05859H339.477V25.4023Z" fill="#EEEEEE"/>
<path d="M209.411 30.8086H213.297V43.5469C213.297 49.4961 209.633 51.4375 205.489 51.4375C201.348 51.4375 197.684 49.4961 197.684 43.5469V30.8086H201.575V43.7188C201.575 47.0156 202.868 48.1719 205.489 48.1719C208.114 48.1719 209.411 47.0156 209.411 43.7188" fill="#EEEEEE"/>
<path d="M216.907 51.1602V36.5H220.122V38.082C221.415 37.1797 222.907 36.2227 224.626 36.2227C227.559 36.2227 228.969 38.1367 228.969 41.125V51.1602H225.473V41.6328C225.473 39.6563 224.852 39.0391 223.672 39.0391C222.149 39.0391 220.993 39.9102 220.399 40.5898V51.1602" fill="#EEEEEE"/>
<path d="M235.872 51.1602H232.379V36.5039H235.872V51.1602ZM232.379 30.5273H235.872V33.7969H232.379V30.5273Z" fill="#EEEEEE"/>
<path d="M237.762 36.5039H241.258L243.68 46.4258H243.735L246.215 36.5039H249.711L245.512 51.1602H241.848" fill="#EEEEEE"/>
<path d="M259.239 42.0273C259.18 40 258.106 38.8125 256.419 38.8125C254.727 38.8125 253.657 40 253.602 42.0273H259.239ZM253.602 44.3945C253.657 47.4375 255.012 48.6211 256.645 48.6211C258.278 48.6211 259.04 47.8906 259.915 46.875L262.45 48.4531C261.098 50.5351 259.126 51.4414 256.305 51.4414C252.504 51.4414 250.106 48.4804 250.106 43.8281C250.106 39.1797 252.504 36.2226 256.477 36.2226C260.309 36.1914 262.45 39.4336 262.45 42.957V44.3945" fill="#EEEEEE"/>
<path d="M264.536 51.1602V36.5H267.747V39.0117H267.805C268.649 37.2656 269.836 36.2773 271.919 36.2227V39.9102C271.747 39.8867 271.551 39.8867 271.301 39.8867C269.551 39.8867 268.032 41.8867 268.032 42.25V51.1602" fill="#EEEEEE"/>
<path d="M280.711 40.3633C280.008 39.6055 279.079 38.8125 277.977 38.8125C276.626 38.8125 276.004 39.375 276.004 40.2539C276.004 42.7578 283.336 41.6875 283.336 47.043C283.336 50.0859 281.024 51.4375 277.954 51.4375C275.61 51.4375 273.696 50.3945 272.399 48.4805L274.739 46.7344C275.555 47.8594 276.657 48.8438 278.153 48.8438C279.387 48.8438 280.231 48.168 280.231 47.1836C280.231 44.6758 272.907 45.5781 272.907 40.4766C272.907 37.7422 275.219 36.2227 277.754 36.2227C279.7 36.2227 281.645 36.9531 282.915 38.4492" fill="#EEEEEE"/>
<path d="M289.395 51.1602H285.899V36.5039H289.395V51.1602ZM285.899 30.5273H289.395V33.7969H285.899V30.5273Z" fill="#EEEEEE"/>
<path d="M293.368 36.5039V31.6523H296.86V36.5039H299.735V39.3203H296.86V47.6094C296.86 48.3945 297.254 48.6211 298.133 48.6211C298.665 48.6211 299.231 48.4531 299.735 48.3359V51.2148C298.778 51.3242 297.934 51.4375 296.973 51.4375C294.383 51.4375 293.368 50.1445 293.368 48.0586V39.3203H291.34V36.5039" fill="#EEEEEE"/>
<path d="M300.102 53.5273C300.641 53.6406 301.063 53.6406 301.567 53.6406C302.778 53.6406 303.454 53.3008 303.879 52.4805C304.215 51.7812 304.446 51.3555 304.446 50.7617C304.446 50.2266 304.165 49.6055 303.993 49.0156L300.075 36.5039H303.598L306.02 45.5195H306.079L308.59 36.5039H312.083L307.458 51.1875C305.911 55.3867 304.669 56.5156 301.794 56.5156C300.95 56.5156 300.528 56.457 300.102 56.4023" fill="#EEEEEE"/>
<path d="M322.227 38.3047C323.637 37.4023 325.27 35.8828 325.27 34.332C325.27 33.0625 324.254 32.2773 323.243 32.2773C321.747 32.2773 321.044 33.5117 321.044 34.668C321.044 35.9961 321.774 37.4609 322.227 38.3047ZM322.34 49.5234C324.141 49.5234 325.469 48.7891 326.454 47.832C324.598 45.6875 322.79 43.3789 321.325 41.0117C319.692 42.082 318.223 43.2656 318.223 45.7461C318.223 48.3125 320.364 49.5234 322.34 49.5234ZM331.528 41.3516C331.133 43.4375 330.231 45.9727 329.247 47.4102C330.118 48.3398 331.864 49.1289 332.598 49.1289V51.1562H331.864C330.852 51.1562 329.047 50.2578 327.864 49.1289C326.512 50.5938 324.708 51.4375 322.059 51.4375C318.899 51.4375 315.969 49.1562 315.969 45.6055C315.969 42.8437 318.254 40.8164 320.395 39.4609C319.575 38.25 318.786 36.2227 318.786 34.5859C318.786 32.2773 320.536 30.5273 323.356 30.5273C325.665 30.5273 327.524 31.8789 327.524 34.3047C327.524 36.6719 325.102 38.5312 323.243 39.8867C324.598 42.3086 326.399 44.4492 327.836 46.0273C328.481 45.1836 329.301 43.0703 329.669 40.8984" fill="#EEEEEE"/>
<path d="M348.524 36.7266C347.958 35.0078 346.747 33.7969 344.829 33.7969C342.239 33.7969 340.661 36.2227 340.661 40.9844C340.602 45.7461 342.012 48.1719 344.942 48.1719C346.692 48.1719 347.762 47.5508 348.915 45.1562L352.524 46.1133C351.313 49.6367 348.665 51.4375 344.942 51.4375C339.758 51.4375 336.77 47.6328 336.77 40.9844C336.77 34.332 339.758 30.5273 344.942 30.5273C348.833 30.5273 351.086 32.2773 352.044 35.8828" fill="#EEEEEE"/>
<path d="M359.626 39.0352C357.68 39.0352 356.751 40.5625 356.751 43.8281C356.751 47.1016 357.68 48.6211 359.626 48.6211C361.571 48.6211 362.501 47.1016 362.501 43.8281C362.501 40.5625 361.571 39.0352 359.626 39.0352ZM359.626 36.2227C363.598 36.2227 365.993 39.1797 365.993 43.8281C365.993 48.4805 363.598 51.4375 359.626 51.4375C355.653 51.4375 353.258 48.4805 353.258 43.8281C353.258 39.1797 355.653 36.2227 359.626 36.2227Z" fill="#EEEEEE"/>
<path d="M368.278 51.1602H371.774V30.8086H368.278V51.1602Z" fill="#EEEEEE"/>
<path d="M375.551 51.1602H379.044V30.8086H375.551V51.1602Z" fill="#EEEEEE"/>
<path d="M390.458 42.0273C390.403 40 389.329 38.8125 387.641 38.8125C385.95 38.8125 384.879 40 384.821 42.0273H390.458ZM384.821 44.3945C384.879 47.4375 386.231 48.6211 387.864 48.6211C389.497 48.6211 390.262 47.8906 391.133 46.875L393.669 48.4531C392.321 50.5351 390.348 51.4414 387.528 51.4414C383.723 51.4414 381.329 48.4804 381.329 43.8281C381.329 39.1797 383.723 36.2226 387.696 36.2226C391.532 36.1914 393.669 39.4336 393.669 42.957V44.3945" fill="#EEEEEE"/>
<path d="M400.86 38.8124C399.364 38.8124 398.321 39.8866 398.321 41.2382C398.321 42.5898 399.364 43.6601 400.86 43.6601C402.18 43.6601 403.254 42.5898 403.254 41.2382C403.254 39.8866 402.18 38.8124 400.86 38.8124ZM397.727 52.5663C397.727 53.6952 398.688 54.1991 401.618 54.1991C403.872 54.1991 404.637 53.0741 404.637 52.5663C404.637 51.8905 403.59 50.8749 400.211 50.8749C398.294 50.8749 397.727 51.9452 397.727 52.5663ZM407.934 38.5859C407.118 38.5859 406.215 38.5859 405.676 38.9257C406.126 39.5468 406.465 40.3944 406.465 41.5194C406.465 44.2812 404.61 46.2538 400.942 46.2538C399.422 46.2538 398.208 46.3124 398.208 47.1562C398.208 49.5234 407.852 46.3124 407.852 52.1757C407.852 54.2616 405.731 56.5155 401.055 56.5155C397.114 56.5155 394.516 55.328 394.516 53.0194C394.516 51.1874 395.899 50.3124 397.165 50.3124V50.2577C396.489 49.8319 394.997 49.4687 394.997 47.8905C394.997 46.4804 396.629 45.4062 397.278 45.2109C396.067 44.2265 395.11 43.1015 395.11 41.3202C395.11 38.7538 397.083 36.2226 400.887 36.2226C402.126 36.2226 403.59 36.7265 404.497 37.5155C405.169 36.6171 406.27 36.164 407.934 36.2226" fill="#EEEEEE"/>
<path d="M417.512 42.0273C417.461 40 416.387 38.8125 414.696 38.8125C413.004 38.8125 411.938 40 411.876 42.0273H417.512ZM411.876 44.3945C411.938 47.4375 413.29 48.6211 414.922 48.6211C416.555 48.6211 417.321 47.8906 418.192 46.875L420.727 48.4531C419.372 50.5351 417.403 51.4414 414.583 51.4414C410.778 51.4414 408.383 48.4804 408.383 43.8281C408.383 39.1797 410.778 36.2226 414.751 36.2226C418.586 36.1914 420.727 39.4336 420.727 42.957V44.3945" fill="#EEEEEE"/>
<path d="M430.165 40.3633C429.465 39.6055 428.532 38.8125 427.434 38.8125C426.083 38.8125 425.461 39.375 425.461 40.2539C425.461 42.7578 432.79 41.6875 432.79 47.043C432.79 50.0859 430.481 51.4375 427.407 51.4375C425.071 51.4375 423.149 50.3945 421.852 48.4805L424.196 46.7344C425.012 47.8594 426.11 48.8438 427.606 48.8438C428.844 48.8438 429.696 48.168 429.696 47.1836C429.696 44.6758 422.364 45.5781 422.364 40.4766C422.364 37.7422 424.676 36.2227 427.211 36.2227C429.153 36.2227 431.102 36.9531 432.368 38.4492" fill="#EEEEEE"/>
<path d="M443.04 41.0703L442.879 38.4492C442.864 38.1016 442.864 37.6758 442.848 37.1992H442.797C442.68 37.5937 442.536 38.1172 442.426 38.5273L441.618 41.0078H440.7L439.891 38.4609C439.813 38.1367 439.68 37.5937 439.586 37.1992H439.532C439.532 37.6094 439.52 38.0352 439.501 38.4492L439.34 41.0703H438.481L438.817 36.6094H440.141L440.911 38.7891C441.024 39.1367 441.09 39.4609 441.208 39.9219H441.223C441.34 39.5352 441.438 39.1367 441.532 38.8242L442.305 36.6094H443.586L443.93 41.0703H443.04ZM438.223 36.6094V37.3516H436.794V41.0703H435.907V37.3516H434.497V36.6094" fill="#FAFAFA"/>
<rect x="323.001" y="61.0039" width="130" height="20" fill="#E21E25"/>
<path d="M335.965 73.4079H332.629L332.077 75.0039H330.313L333.325 66.6159H335.281L338.293 75.0039H336.517L335.965 73.4079ZM335.509 72.0639L334.297 68.5599L333.085 72.0639H335.509ZM338.986 71.6799C338.986 70.9919 339.126 70.3919 339.406 69.8799C339.686 69.3599 340.074 68.9599 340.57 68.6799C341.066 68.3919 341.634 68.2479 342.274 68.2479C343.098 68.2479 343.778 68.4559 344.314 68.8719C344.858 69.2799 345.222 69.8559 345.406 70.5999H343.594C343.498 70.3119 343.334 70.0879 343.102 69.9279C342.878 69.7599 342.598 69.6759 342.262 69.6759C341.782 69.6759 341.402 69.8519 341.122 70.2039C340.842 70.5479 340.702 71.0399 340.702 71.6799C340.702 72.3119 340.842 72.8039 341.122 73.1559C341.402 73.4999 341.782 73.6719 342.262 73.6719C342.942 73.6719 343.386 73.3679 343.594 72.7599H345.406C345.222 73.4799 344.858 74.0519 344.314 74.4759C343.77 74.8999 343.09 75.1119 342.274 75.1119C341.634 75.1119 341.066 74.9719 340.57 74.6919C340.074 74.4039 339.686 74.0039 339.406 73.4919C339.126 72.9719 338.986 72.3679 338.986 71.6799ZM346.205 71.6559C346.205 70.9839 346.337 70.3879 346.601 69.8679C346.873 69.3479 347.237 68.9479 347.693 68.6679C348.157 68.3879 348.673 68.2479 349.241 68.2479C349.737 68.2479 350.169 68.3479 350.537 68.5479C350.913 68.7479 351.213 68.9999 351.437 69.3039V68.3559H353.129V75.0039H351.437V74.0319C351.221 74.3439 350.921 74.6039 350.537 74.8119C350.161 75.0119 349.725 75.1119 349.229 75.1119C348.669 75.1119 348.157 74.9679 347.693 74.6799C347.237 74.3919 346.873 73.9879 346.601 73.4679C346.337 72.9399 346.205 72.3359 346.205 71.6559ZM351.437 71.6799C351.437 71.2719 351.357 70.9239 351.197 70.6359C351.037 70.3399 350.821 70.1159 350.549 69.9639C350.277 69.8039 349.985 69.7239 349.673 69.7239C349.361 69.7239 349.073 69.7999 348.809 69.9519C348.545 70.1039 348.329 70.3279 348.161 70.6239C348.001 70.9119 347.921 71.2559 347.921 71.6559C347.921 72.0559 348.001 72.4079 348.161 72.7119C348.329 73.0079 348.545 73.2359 348.809 73.3959C349.081 73.5559 349.369 73.6359 349.673 73.6359C349.985 73.6359 350.277 73.5599 350.549 73.4079C350.821 73.2479 351.037 73.0239 351.197 72.7359C351.357 72.4399 351.437 72.0879 351.437 71.6799ZM354.338 71.6559C354.338 70.9839 354.47 70.3879 354.734 69.8679C355.006 69.3479 355.374 68.9479 355.838 68.6679C356.302 68.3879 356.818 68.2479 357.386 68.2479C357.818 68.2479 358.23 68.3439 358.622 68.5359C359.014 68.7199 359.326 68.9679 359.558 69.2799V66.1239H361.262V75.0039H359.558V74.0199C359.35 74.3479 359.058 74.6119 358.682 74.8119C358.306 75.0119 357.87 75.1119 357.374 75.1119C356.814 75.1119 356.302 74.9679 355.838 74.6799C355.374 74.3919 355.006 73.9879 354.734 73.4679C354.47 72.9399 354.338 72.3359 354.338 71.6559ZM359.57 71.6799C359.57 71.2719 359.49 70.9239 359.33 70.6359C359.17 70.3399 358.954 70.1159 358.682 69.9639C358.41 69.8039 358.118 69.7239 357.806 69.7239C357.494 69.7239 357.206 69.7999 356.942 69.9519C356.678 70.1039 356.462 70.3279 356.294 70.6239C356.134 70.9119 356.054 71.2559 356.054 71.6559C356.054 72.0559 356.134 72.4079 356.294 72.7119C356.462 73.0079 356.678 73.2359 356.942 73.3959C357.214 73.5559 357.502 73.6359 357.806 73.6359C358.118 73.6359 358.41 73.5599 358.682 73.4079C358.954 73.2479 359.17 73.0239 359.33 72.7359C359.49 72.4399 359.57 72.0879 359.57 71.6799ZM369.083 71.5359C369.083 71.7759 369.067 71.9919 369.035 72.1839H364.175C364.215 72.6639 364.383 73.0399 364.679 73.3119C364.975 73.5839 365.339 73.7199 365.771 73.7199C366.395 73.7199 366.839 73.4519 367.103 72.9159H368.915C368.723 73.5559 368.355 74.0839 367.811 74.4999C367.267 74.9079 366.599 75.1119 365.807 75.1119C365.167 75.1119 364.591 74.9719 364.079 74.6919C363.575 74.4039 363.179 73.9999 362.891 73.4799C362.611 72.9599 362.471 72.3599 362.471 71.6799C362.471 70.9919 362.611 70.3879 362.891 69.8679C363.171 69.3479 363.563 68.9479 364.067 68.6679C364.571 68.3879 365.151 68.2479 365.807 68.2479C366.439 68.2479 367.003 68.3839 367.499 68.6559C368.003 68.9279 368.391 69.3159 368.663 69.8199C368.943 70.3159 369.083 70.8879 369.083 71.5359ZM367.343 71.0559C367.335 70.6239 367.179 70.2799 366.875 70.0239C366.571 69.7599 366.199 69.6279 365.759 69.6279C365.343 69.6279 364.991 69.7559 364.703 70.0119C364.423 70.2599 364.251 70.6079 364.187 71.0559H367.343ZM378.565 68.2599C379.381 68.2599 380.037 68.5119 380.533 69.0159C381.037 69.5119 381.289 70.2079 381.289 71.1039V75.0039H379.609V71.3319C379.609 70.8119 379.477 70.4159 379.213 70.1439C378.949 69.8639 378.589 69.7239 378.133 69.7239C377.677 69.7239 377.313 69.8639 377.041 70.1439C376.777 70.4159 376.645 70.8119 376.645 71.3319V75.0039H374.965V71.3319C374.965 70.8119 374.833 70.4159 374.569 70.1439C374.305 69.8639 373.945 69.7239 373.489 69.7239C373.025 69.7239 372.657 69.8639 372.385 70.1439C372.121 70.4159 371.989 70.8119 371.989 71.3319V75.0039H370.309V68.3559H371.989V69.1599C372.205 68.8799 372.481 68.6599 372.817 68.4999C373.161 68.3399 373.537 68.2599 373.945 68.2599C374.465 68.2599 374.929 68.3719 375.337 68.5959C375.745 68.8119 376.061 69.1239 376.285 69.5319C376.501 69.1479 376.813 68.8399 377.221 68.6079C377.637 68.3759 378.085 68.2599 378.565 68.2599ZM383.735 67.5639C383.439 67.5639 383.191 67.4719 382.991 67.2879C382.799 67.0959 382.703 66.8599 382.703 66.5799C382.703 66.2999 382.799 66.0679 382.991 65.8839C383.191 65.6919 383.439 65.5959 383.735 65.5959C384.031 65.5959 384.275 65.6919 384.467 65.8839C384.667 66.0679 384.767 66.2999 384.767 66.5799C384.767 66.8599 384.667 67.0959 384.467 67.2879C384.275 67.4719 384.031 67.5639 383.735 67.5639ZM384.563 68.3559V75.0039H382.883V68.3559H384.563ZM385.791 71.6799C385.791 70.9919 385.931 70.3919 386.211 69.8799C386.491 69.3599 386.879 68.9599 387.375 68.6799C387.871 68.3919 388.439 68.2479 389.079 68.2479C389.903 68.2479 390.583 68.4559 391.119 68.8719C391.663 69.2799 392.027 69.8559 392.211 70.5999H390.399C390.303 70.3119 390.139 70.0879 389.907 69.9279C389.683 69.7599 389.403 69.6759 389.067 69.6759C388.587 69.6759 388.207 69.8519 387.927 70.2039C387.647 70.5479 387.507 71.0399 387.507 71.6799C387.507 72.3119 387.647 72.8039 387.927 73.1559C388.207 73.4999 388.587 73.6719 389.067 73.6719C389.747 73.6719 390.191 73.3679 390.399 72.7599H392.211C392.027 73.4799 391.663 74.0519 391.119 74.4759C390.575 74.8999 389.895 75.1119 389.079 75.1119C388.439 75.1119 387.871 74.9719 387.375 74.6919C386.879 74.4039 386.491 74.0039 386.211 73.4919C385.931 72.9719 385.791 72.3679 385.791 71.6799ZM399.193 75.0879C398.609 75.0879 398.081 74.9879 397.609 74.7879C397.145 74.5879 396.777 74.2999 396.505 73.9239C396.233 73.5479 396.093 73.1039 396.085 72.5919H397.885C397.909 72.9359 398.029 73.2079 398.245 73.4079C398.469 73.6079 398.773 73.7079 399.157 73.7079C399.549 73.7079 399.857 73.6159 400.081 73.4319C400.305 73.2399 400.417 72.9919 400.417 72.6879C400.417 72.4399 400.341 72.2359 400.189 72.0759C400.037 71.9159 399.845 71.7919 399.613 71.7039C399.389 71.6079 399.077 71.5039 398.677 71.3919C398.133 71.2319 397.689 71.0759 397.345 70.9239C397.009 70.7639 396.717 70.5279 396.469 70.2159C396.229 69.8959 396.109 69.4719 396.109 68.9439C396.109 68.4479 396.233 68.0159 396.481 67.6479C396.729 67.2799 397.077 66.9999 397.525 66.8079C397.973 66.6079 398.485 66.5079 399.061 66.5079C399.925 66.5079 400.625 66.7199 401.161 67.1439C401.705 67.5599 402.005 68.1439 402.061 68.8959H400.213C400.197 68.6079 400.073 68.3719 399.841 68.1879C399.617 67.9959 399.317 67.8999 398.941 67.8999C398.613 67.8999 398.349 67.9839 398.149 68.1519C397.957 68.3199 397.861 68.5639 397.861 68.8839C397.861 69.1079 397.933 69.2959 398.077 69.4479C398.229 69.5919 398.413 69.7119 398.629 69.8079C398.853 69.8959 399.165 69.9999 399.565 70.1199C400.109 70.2799 400.553 70.4399 400.897 70.5999C401.241 70.7599 401.537 70.9999 401.785 71.3199C402.033 71.6399 402.157 72.0599 402.157 72.5799C402.157 73.0279 402.041 73.4439 401.809 73.8279C401.577 74.2119 401.237 74.5199 400.789 74.7519C400.341 74.9759 399.809 75.0879 399.193 75.0879ZM409.794 71.5359C409.794 71.7759 409.778 71.9919 409.746 72.1839H404.886C404.926 72.6639 405.094 73.0399 405.39 73.3119C405.686 73.5839 406.05 73.7199 406.482 73.7199C407.106 73.7199 407.55 73.4519 407.814 72.9159H409.626C409.434 73.5559 409.066 74.0839 408.522 74.4999C407.978 74.9079 407.31 75.1119 406.518 75.1119C405.878 75.1119 405.302 74.9719 404.79 74.6919C404.286 74.4039 403.89 73.9999 403.602 73.4799C403.322 72.9599 403.182 72.3599 403.182 71.6799C403.182 70.9919 403.322 70.3879 403.602 69.8679C403.882 69.3479 404.274 68.9479 404.778 68.6679C405.282 68.3879 405.862 68.2479 406.518 68.2479C407.15 68.2479 407.714 68.3839 408.21 68.6559C408.714 68.9279 409.102 69.3159 409.374 69.8199C409.654 70.3159 409.794 70.8879 409.794 71.5359ZM408.054 71.0559C408.046 70.6239 407.89 70.2799 407.586 70.0239C407.282 69.7599 406.91 69.6279 406.47 69.6279C406.054 69.6279 405.702 69.7559 405.414 70.0119C405.134 70.2599 404.962 70.6079 404.898 71.0559H408.054ZM412.7 69.3879C412.916 69.0359 413.196 68.7599 413.54 68.5599C413.892 68.3599 414.292 68.2599 414.74 68.2599V70.0239H414.296C413.768 70.0239 413.368 70.1479 413.096 70.3959C412.832 70.6439 412.7 71.0759 412.7 71.6919V75.0039H411.02V68.3559H412.7V69.3879ZM418.644 73.4559L420.324 68.3559H422.112L419.652 75.0039H417.612L415.164 68.3559H416.964L418.644 73.4559ZM423.907 67.5639C423.611 67.5639 423.363 67.4719 423.163 67.2879C422.971 67.0959 422.875 66.8599 422.875 66.5799C422.875 66.2999 422.971 66.0679 423.163 65.8839C423.363 65.6919 423.611 65.5959 423.907 65.5959C424.203 65.5959 424.447 65.6919 424.639 65.8839C424.839 66.0679 424.939 66.2999 424.939 66.5799C424.939 66.8599 424.839 67.0959 424.639 67.2879C424.447 67.4719 424.203 67.5639 423.907 67.5639ZM424.735 68.3559V75.0039H423.055V68.3559H424.735ZM425.963 71.6799C425.963 70.9919 426.103 70.3919 426.383 69.8799C426.663 69.3599 427.051 68.9599 427.547 68.6799C428.043 68.3919 428.611 68.2479 429.251 68.2479C430.075 68.2479 430.755 68.4559 431.291 68.8719C431.835 69.2799 432.199 69.8559 432.383 70.5999H430.571C430.475 70.3119 430.311 70.0879 430.079 69.9279C429.855 69.7599 429.575 69.6759 429.239 69.6759C428.759 69.6759 428.379 69.8519 428.099 70.2039C427.819 70.5479 427.679 71.0399 427.679 71.6799C427.679 72.3119 427.819 72.8039 428.099 73.1559C428.379 73.4999 428.759 73.6719 429.239 73.6719C429.919 73.6719 430.363 73.3679 430.571 72.7599H432.383C432.199 73.4799 431.835 74.0519 431.291 74.4759C430.747 74.8999 430.067 75.1119 429.251 75.1119C428.611 75.1119 428.043 74.9719 427.547 74.6919C427.051 74.4039 426.663 74.0039 426.383 73.4919C426.103 72.9719 425.963 72.3679 425.963 71.6799ZM439.794 71.5359C439.794 71.7759 439.778 71.9919 439.746 72.1839H434.886C434.926 72.6639 435.094 73.0399 435.39 73.3119C435.686 73.5839 436.05 73.7199 436.482 73.7199C437.106 73.7199 437.55 73.4519 437.814 72.9159H439.626C439.434 73.5559 439.066 74.0839 438.522 74.4999C437.978 74.9079 437.31 75.1119 436.518 75.1119C435.878 75.1119 435.302 74.9719 434.79 74.6919C434.286 74.4039 433.89 73.9999 433.602 73.4799C433.322 72.9599 433.182 72.3599 433.182 71.6799C433.182 70.9919 433.322 70.3879 433.602 69.8679C433.882 69.3479 434.274 68.9479 434.778 68.6679C435.282 68.3879 435.862 68.2479 436.518 68.2479C437.15 68.2479 437.714 68.3839 438.21 68.6559C438.714 68.9279 439.102 69.3159 439.374 69.8199C439.654 70.3159 439.794 70.8879 439.794 71.5359ZM438.054 71.0559C438.046 70.6239 437.89 70.2799 437.586 70.0239C437.282 69.7599 436.91 69.6279 436.47 69.6279C436.054 69.6279 435.702 69.7559 435.414 70.0119C435.134 70.2599 434.962 70.6079 434.898 71.0559H438.054ZM443.564 75.1119C443.02 75.1119 442.532 75.0159 442.1 74.8239C441.668 74.6239 441.324 74.3559 441.068 74.0199C440.82 73.6839 440.684 73.3119 440.66 72.9039H442.352C442.384 73.1599 442.508 73.3719 442.724 73.5399C442.948 73.7079 443.224 73.7919 443.552 73.7919C443.872 73.7919 444.12 73.7279 444.296 73.5999C444.48 73.4719 444.572 73.3079 444.572 73.1079C444.572 72.8919 444.46 72.7319 444.236 72.6279C444.02 72.5159 443.672 72.3959 443.192 72.2679C442.696 72.1479 442.288 72.0239 441.968 71.8959C441.656 71.7679 441.384 71.5719 441.152 71.3079C440.928 71.0439 440.816 70.6879 440.816 70.2399C440.816 69.8719 440.92 69.5359 441.128 69.2319C441.344 68.9279 441.648 68.6879 442.04 68.5119C442.44 68.3359 442.908 68.2479 443.444 68.2479C444.236 68.2479 444.868 68.4479 445.34 68.8479C445.812 69.2399 446.072 69.7719 446.12 70.4439H444.512C444.488 70.1799 444.376 69.9719 444.176 69.8199C443.984 69.6599 443.724 69.5799 443.396 69.5799C443.092 69.5799 442.856 69.6359 442.688 69.7479C442.528 69.8599 442.448 70.0159 442.448 70.2159C442.448 70.4399 442.56 70.6119 442.784 70.7319C443.008 70.8439 443.356 70.9599 443.828 71.0799C444.308 71.1999 444.704 71.3239 445.016 71.4519C445.328 71.5799 445.596 71.7799 445.82 72.0519C446.052 72.3159 446.172 72.6679 446.18 73.1079C446.18 73.4919 446.072 73.8359 445.856 74.1399C445.648 74.4439 445.344 74.6839 444.944 74.8599C444.552 75.0279 444.092 75.1119 443.564 75.1119Z" fill="white"/>
</svg>
