<svg width="444" height="82" viewBox="0 0 444 82" fill="none" xmlns="http://www.w3.org/2000/svg">
<path d="M62.0703 26.8047C60.0742 24.7891 63.0899 24.9141 60.5508 24.6172C58.0039 24.3125 55.2852 25.2188 52.8164 25.0781C51.8281 25.0156 50.9688 24.8828 49.9727 25.0195C48.8867 25.1836 48.1367 25.0313 47.0547 25.0352C46.4609 25.0352 45.8789 25.082 45.2969 25.1523C45.9141 24.6836 46.5352 24.1953 47.25 23.7852C48.0508 23.7852 48.3789 22.9922 48.8516 22.6836C49.9844 22.5156 50.793 21.5781 51.4453 20.9375L51.9219 21.0938C52.2539 20.9375 52.4141 20.9375 52.5664 20.7812C52.8906 20.7812 52.8906 20.4648 53.2149 20.4648H53.3789C53.3789 19.8398 54.1836 19.9844 54.3477 19.5195C55.1563 19.3633 55.3125 18.4141 56.1133 18.4141C56.1133 18.4141 57.5742 17.9375 57.7344 17.3008C59.3399 16.8242 58.5664 17.5898 59.543 17.1094C59.7031 16.9531 59.8633 16.6406 59.8633 16.4805C59.543 16.1602 58.4063 14.7344 58.4063 14.2656V14.1055C58.0859 13.4727 57.6055 12.8437 56.957 12.6836C57.1094 12.3633 56.8008 12.0547 56.8008 11.7383V11.5742C56.3086 10.6328 55.8359 9.51953 54.6992 9.05469C54.2149 9.36719 53.5742 9.05469 53.082 9.36719C53.082 10.7852 51.1133 10.6641 50.3125 11.1406C50.3125 11.6133 49.3438 11.6133 49.3438 12.2578C48.5352 12.0938 48.5352 13.3594 47.8906 13.3594C47.7227 13.3594 47.5664 13.1953 47.4063 13.1953C46.2852 13.6719 44.9883 13.9883 44.1797 14.9375C43.6875 15.1016 43.5391 15.8828 43.0469 16.1953C42.7734 16.7539 42.1133 16.4492 41.625 16.4844C41.5781 16.4844 41.5391 16.5 41.5 16.5078C41.4649 16.5078 41.4609 16.5156 41.4336 16.5273C41.3281 16.4023 41.1836 16.3086 41.1406 16.1836C40.7305 15.5469 40.9297 14.6563 40.793 13.9883C41.1172 13.5117 41.1172 13.0391 41.1172 12.5586C41.1172 11.9297 41.1172 11.457 40.9531 10.8203C41.1172 10.1914 41.1172 9.40625 41.1172 8.77344C41.1172 5.92969 40.793 9.375 39.4961 7L39.668 6.84375C39.668 6.37109 39.1797 6.05078 39.1797 5.73828V5.58203C38.5352 5.58203 37.4063 2.89844 37.0859 2.26172C36.4375 2.26172 36.2813 1.62891 35.7852 1.62891C35.7852 1.3125 34.9883 1.3125 34.8242 0.996094L34.6602 1.3125C33.6875 1.3125 32.5625 3.68359 32.5625 4.47266C32.5625 5.10156 33.1992 5.73828 33.043 6.37109V6.53125C34.0117 7.16406 34.3359 8.27344 34.3359 9.21094C34.3359 9.6875 34.1758 9.26563 34.2227 9.61719C34.2734 9.93359 34.1992 9.73828 34.0117 9.87109V10.3555C34.0117 10.6641 33.8555 11.1406 34.1758 11.2891C34.1758 11.7773 34.0117 12.0937 34.0117 12.5586C34.0117 12.7187 34.1758 13.0391 34.1758 13.1953C34.0117 13.3594 34.0117 13.6719 34.0117 13.832C34.0117 14.457 34.0117 14.9375 33.5313 15.4141C33.5313 15.4141 33.375 15.7227 33.375 15.8828C33.375 16.1953 33.6875 16.5156 33.6875 16.8242C33.6875 17.3008 33.043 17.6172 33.1992 18.4141L32.8828 18.8828C32.8828 19.1992 33.043 19.5195 33.043 19.8398L32.8828 20.1445C33.043 21.4219 32.0781 22.207 31.9102 23.3086C31.9102 23.3086 31.9024 23.3203 31.9024 23.3242C31.8399 23.3086 31.7891 23.3086 31.7422 23.2891C30.9844 23.2891 30.7031 23.9648 30.2539 24.2695C30.1289 24.375 29.9336 24.4922 29.707 24.6172C29.5742 24.4961 29.4336 24.3633 29.3242 24.2266C29.1094 24.0664 28.9414 23.8164 28.8516 23.6211C27.2383 22.9922 25.9492 21.8906 24.3399 21.4219C23.8555 20.625 22.8867 20.1445 22.2383 19.5195C21.2656 19.6797 20.6211 18.5703 19.6484 18.4141C19.0078 18.1016 18.6875 17.1445 17.8828 17.3008C17.0703 16.3594 15.1289 14.9375 13.8477 14.9375C13.2031 13.6719 14.0859 15.2656 12.793 14.3203C12.6367 14.1602 12.4727 13.8398 12.1524 13.8398C11.5039 13.3633 10.6953 13.3633 10.2188 12.7305C10.0508 12.1094 9.40626 12.1094 8.91407 12.1094H8.10938C7.96485 12.418 7.46485 12.7305 7.46485 13.0508V13.3633H7.3047C7.46485 13.9961 6.9922 14.1602 6.9922 14.7891L7.3047 15.2656C7.3047 15.7383 7.96485 15.8984 8.28126 16.3672C9.08595 16.3672 9.40626 17.9453 10.3672 18.2617C10.5391 18.8984 11.3438 19.2148 11.5039 20.0078C12.4727 20.4766 14.1641 21.2578 14.8164 21.8906C15.9414 21.5781 16.2578 23.4687 17.3906 23.3086H17.7149L18.1992 23.6211C18.3672 23.6211 18.6875 23.4687 18.8516 23.6211C19.5391 24.7148 20.832 24.8672 21.8984 25.3906C21.4375 25.4297 20.9688 25.5664 20.5469 25.5664C19.5078 25.5664 18.4609 25.3594 17.4219 25.2734C15.9492 25.1523 14.7891 24.8359 13.3359 25.0781C12.082 25.2812 10.7617 25.4297 9.53126 25.5898C7.70704 25.8164 5.90235 26.0469 4.09767 26.3164C2.93751 26.4961 1.65626 25.5039 0.675791 26.3594C-0.171865 27.1094 -0.210928 28.3437 0.492198 29.2148C1.25782 30.1719 2.32813 30.3242 3.41017 30.7539C4.51954 31.1875 5.63673 31.4961 6.8086 31.5664C9.16407 31.7266 11.1211 32.2266 13.4883 31.8516C14.7578 31.6523 16.0977 31.6484 17.4297 31.6484C17.2852 31.7695 17.1094 31.8906 16.9102 32C16.4531 32 16.168 32.2969 15.9024 32.5938L14.7266 33.4727C13.6719 34.0156 12.1641 34.4609 12.1641 34.4609C11.6797 34.4609 11.1953 34.9336 10.707 34.9336H10.5508C10.2266 35.4023 9.42579 35.082 9.08985 35.5625C8.13282 35.4023 7.32813 36.0352 6.51173 36.3477C5.71095 36.5117 5.5547 37.6133 5.5547 38.2461C5.5547 38.8867 5.8711 39.5156 6.03126 39.9805C6.35157 40.7734 6.83595 40.6172 6.83595 40.9375V41.0938L7.16798 41.25L7.48048 41.0938C8.13282 41.7188 9.7461 44.0977 10.3867 44.25C10.8672 44.5703 11.5156 44.7266 12.1641 44.7266C12.6563 44.7266 15.4414 43.375 17.5313 42.3125L18.0508 42.0078C18.0508 42.0078 18.2461 41.8164 18.375 41.8008C18.5078 41.7813 18.6719 41.7188 18.6719 41.7188L18.9336 41.5703L19.1914 41.4297L19.5117 41.3047C19.5117 41.3047 19.8281 41.1797 19.9805 41.1641C20.6211 41.1406 20.9414 40.6914 21.4336 40.2227C22.3984 39.75 23.5234 39.1172 24.168 38.168C24.9844 38.168 25.4609 37.3711 26.1094 37.2188C26.4336 35.957 28.0391 36.2695 28.5352 35.3203C28.6797 35.2969 28.7852 35.3125 28.8633 35.3438L28.8711 35.3516V35.3438C28.8906 35.3555 28.9141 35.3672 28.9297 35.3789C28.9453 35.3867 28.9609 35.4023 28.9727 35.4258C29.2461 35.7188 28.9297 36.543 29.1719 36.8984C28.8516 37.0625 29.1719 37.5312 29.0078 37.8516C28.3633 38.4805 27.8867 39.2695 27.8867 40.2227V40.6914C27.2383 41.3242 26.9102 42.2773 26.5899 43.2305C26.75 44.0078 25.4609 44.1758 25.4609 45.1094L25.3008 45.2852C25.4609 45.4336 25.4609 45.7539 25.4609 45.8984C25.625 46.2227 25.625 46.5469 25.625 46.8594C25.625 47.6406 25.3008 48.2812 25.3008 49.0742C25.3008 49.3906 25.3008 49.5469 25.4609 49.8633C26.2695 50.1758 25.4609 51.2813 26.2695 51.4414C26.9102 51.918 27.2383 52.8555 28.0391 52.7109C28.2031 54.1328 30.1406 53.9687 30.3047 55.3984C31.1172 55.0703 31.2734 56.3438 32.0781 56.3438C32.4141 56.3438 32.2383 55.7148 32.4141 55.3984L32.0781 54.918C32.2383 54.2891 32.5625 53.9687 32.5625 53.4922C32.5625 53.3398 32.4141 53.0195 32.4141 52.8555C32.7266 52.5469 33.5313 50.3281 33.5313 49.8633V48.4414C33.8555 47.4922 34.6602 46.8594 34.8242 45.7539C35.1484 45.6016 35.3008 45.1094 35.3008 44.6484C35.3008 44.0078 35.1484 43.2305 35.7852 42.7578C35.6211 41.8008 36.1094 41.1641 36.1094 40.2227C36.1094 39.8945 36.1094 39.5859 35.9531 39.2695C36.6055 38.793 36.1094 37.3711 37.0859 36.8984L37.2383 36.4258C37.2383 36.3906 37.2461 36.2773 37.2539 36.1133C37.2656 35.9063 37.293 35.6172 37.3203 35.3086C37.8477 35.5469 38.2969 35.7656 38.5039 35.957H38.5352C39.0156 36.7383 40.1406 36.8984 40.9531 37.5312C42.082 38.3242 42.7305 38.0039 43.6875 38.6406L44.0234 38.4805C44.4961 38.4805 45.1445 39.2695 45.4727 39.2695L45.3125 39.4258C46.5977 40.0586 47.7227 40.6914 49.0274 41.3242C49.1758 41.3242 49.3438 41.3242 49.5078 41.4844C51.1133 42.7578 53.8594 44.3281 55.793 44.8086C55.9649 45.2852 56.6016 45.4336 56.7695 45.7539C57.4141 45.7539 57.5742 46.5469 58.2109 46.5469L58.5352 46.3906C58.7031 46.5469 59.1836 46.5469 59.3399 46.8594C59.5117 46.6992 59.668 46.3906 59.5117 46.0742V45.6016C58.2109 44.8086 57.7344 41.6367 57.082 40.8516C57.2461 39.8945 56.2774 39.2695 55.9649 38.4805C55.3125 38.4805 55.1563 37.8516 54.6641 37.8516H54.3477C53.8594 37.5312 53.0469 37.6914 53.0469 36.8984V36.7383C52.0859 35.957 51.4453 35.0117 50.6289 34.3789C50.3125 34.2148 50.1524 34.2148 49.9844 34.2148C49.668 34.2148 49.1758 34.3789 49.0274 34.5312C47.8906 34.6875 47.4063 33.5859 46.2852 33.5859C45.1445 32.7891 43.8555 32.3242 42.5703 31.6797C42.3399 31.543 42.1563 31.2969 41.9531 31.0703C42.5274 30.9883 42.8359 31.1016 43.418 31.1172C44.1172 31.1406 44.7266 31.0078 45.4727 30.9492C46.375 30.8672 46.8711 31.4023 47.75 31.5547C49.2578 31.8203 50.6953 30.6523 52.0977 30.5195C54.4649 30.3164 56.8711 30.6445 59.1797 30.3477C59.5742 30.2891 59.0781 30.5508 60.3477 30.4766C61.1797 30.4297 62.957 30.8203 63.3516 29.7617C63.6055 29.1016 62.5234 27.2656 62.0703 26.8047Z" fill="#E21E25"/>
<path d="M75.4297 53.0586H84.4688V5.79688H75.4297V53.0586Z" fill="#1C1C1A"/>
<path d="M93.5664 53.0586V5.79688H102.992L121.582 38.0117H121.715V5.79688H130.227V53.0586H121.52L102.207 19.4141H102.074V53.0586" fill="#1C1C1A"/>
<path d="M169.305 5.73047V13.3281H156.934V53.0586H147.902V13.3281H135.527V5.73047" fill="#1C1C1A"/>
<path d="M175.664 53.0586H184.695V5.79688H175.664V53.0586Z" fill="#1C1C1A"/>
<path d="M198.051 26.3984H201.941V6.05469H198.051V26.3984Z" fill="#4A4A4A"/>
<path d="M205.941 26.4023V11.7461H209.156V13.3203C210.453 12.4219 211.945 11.4609 213.664 11.4609C216.594 11.4609 218.004 13.3789 218.004 16.3672V26.4023H214.508V16.875C214.508 14.8984 213.891 14.2812 212.703 14.2812C211.184 14.2812 210.027 15.1523 209.438 15.832V26.4023" fill="#4A4A4A"/>
<path d="M221.613 11.7461V6.89453H225.109V11.7461H227.984V14.5625H225.109V22.8477C225.109 23.6406 225.504 23.8633 226.375 23.8633C226.91 23.8633 227.477 23.6953 227.984 23.5781V26.457C227.02 26.5664 226.176 26.6836 225.219 26.6836C222.629 26.6836 221.613 25.3867 221.613 23.3008V14.5625H219.586V11.7461" fill="#4A4A4A"/>
<path d="M237.871 17.2695C237.82 15.2421 236.746 14.0546 235.059 14.0546C233.363 14.0546 232.293 15.2421 232.234 17.2695H237.871ZM232.234 19.6366C232.293 22.6796 233.648 23.8632 235.281 23.8632C236.914 23.8632 237.676 23.1288 238.551 22.1171L241.09 23.6952C239.738 25.7773 237.762 26.6835 234.941 26.6835C231.137 26.6835 228.742 23.7226 228.742 19.0702C228.742 14.4218 231.137 11.4609 235.113 11.4609C238.941 11.4335 241.09 14.6757 241.09 18.1991V19.6366" fill="#4A4A4A"/>
<path d="M243.172 26.4023V11.7461H246.387V14.2539H246.441C247.289 12.5078 248.469 11.5195 250.555 11.4609V15.1523C250.387 15.1289 250.191 15.1289 249.938 15.1289C248.191 15.1289 246.664 17.125 246.664 17.4922V26.4023" fill="#4A4A4A"/>
<path d="M252.219 26.4023V11.7461H255.434V13.3203C256.727 12.4219 258.223 11.4609 259.941 11.4609C262.871 11.4609 264.281 13.3789 264.281 16.3672V26.4023H260.789V16.875C260.789 14.8984 260.164 14.2812 258.984 14.2812C257.461 14.2812 256.305 15.1523 255.715 15.832V26.4023" fill="#4A4A4A"/>
<path d="M274.43 19.3829C272.086 19.836 269.527 20.3126 269.527 22.3712C269.527 23.4689 270.23 24.0899 271.211 24.0899C272.316 24.0899 273.695 23.1603 274.43 22.5392V19.3829ZM274.797 26.3985L274.566 25.1329C273.16 26.0899 271.836 26.6837 270.004 26.6837C267.355 26.6837 266.031 24.7931 266.031 22.7892C266.031 19.4689 268.738 17.7189 274.43 17.0431V15.8009C274.43 14.6759 273.527 14.0548 272.285 14.0548C270.648 14.0548 269.75 14.9298 269.074 15.8595L266.82 14.1407C267.719 12.5939 270.145 11.4064 272.285 11.461C276.234 11.547 277.922 12.9845 277.922 17.3829V24.2892C277.922 25.0196 277.98 25.7501 278.203 26.3985" fill="#4A4A4A"/>
<path d="M281.418 11.7461V6.89453H284.91V11.7461H287.785V14.5625H284.91V22.8477C284.91 23.6406 285.305 23.8633 286.18 23.8633C286.715 23.8633 287.281 23.6953 287.785 23.5781V26.457C286.828 26.5664 285.988 26.6836 285.027 26.6836C282.434 26.6836 281.418 25.3867 281.418 23.3008V14.5625H279.391V11.7461" fill="#4A4A4A"/>
<path d="M293.539 26.3984H290.043V11.7422H293.539V26.3984ZM290.043 5.76953H293.539V9.03906H290.043V5.76953Z" fill="#4A4A4A"/>
<path d="M302.191 14.2812C300.246 14.2812 299.312 15.8047 299.312 19.0703C299.312 22.3437 300.246 23.8633 302.191 23.8633C304.137 23.8633 305.066 22.3437 305.066 19.0703C305.066 15.8047 304.137 14.2812 302.191 14.2812ZM302.191 11.4609C306.164 11.4609 308.559 14.4219 308.559 19.0703C308.559 23.7227 306.164 26.6836 302.191 26.6836C298.219 26.6836 295.82 23.7227 295.82 19.0703C295.82 14.4219 298.219 11.4609 302.191 11.4609Z" fill="#4A4A4A"/>
<path d="M310.477 26.4023V11.7461H313.691V13.3203C314.988 12.4219 316.48 11.4609 318.199 11.4609C321.129 11.4609 322.539 13.3789 322.539 16.3672V26.4023H319.039V16.875C319.039 14.8984 318.422 14.2812 317.238 14.2812C315.715 14.2812 314.562 15.1523 313.969 15.832V26.4023" fill="#4A4A4A"/>
<path d="M332.684 19.3829C330.348 19.836 327.781 20.3126 327.781 22.3712C327.781 23.4689 328.484 24.0899 329.473 24.0899C330.57 24.0899 331.949 23.1603 332.684 22.5392V19.3829ZM333.051 26.3985L332.824 25.1329C331.414 26.0899 330.094 26.6837 328.258 26.6837C325.613 26.6837 324.285 24.7931 324.285 22.7892C324.285 19.4689 326.992 17.7189 332.684 17.0431V15.8009C332.684 14.6759 331.777 14.0548 330.543 14.0548C328.91 14.0548 328.004 14.9298 327.332 15.8595L325.074 14.1407C325.973 12.5939 328.402 11.4064 330.543 11.461C334.488 11.547 336.18 12.9845 336.18 17.3829V24.2892C336.18 25.0196 336.234 25.7501 336.457 26.3985" fill="#4A4A4A"/>
<path d="M339.477 26.3984H342.977V6.05469H339.477V26.3984Z" fill="#4A4A4A"/>
<path d="M209.41 31.8047H213.297V44.543C213.297 50.4922 209.633 52.4336 205.488 52.4336C201.348 52.4336 197.684 50.4922 197.684 44.543V31.8047H201.574V44.7148C201.574 48.0117 202.867 49.168 205.488 49.168C208.113 49.168 209.41 48.0117 209.41 44.7148" fill="#4A4A4A"/>
<path d="M216.906 52.1562V37.4961H220.121V39.0781C221.414 38.1758 222.906 37.2188 224.625 37.2188C227.559 37.2188 228.969 39.1328 228.969 42.1211V52.1562H225.473V42.6289C225.473 40.6523 224.852 40.0352 223.672 40.0352C222.148 40.0352 220.992 40.9062 220.398 41.5859V52.1562" fill="#4A4A4A"/>
<path d="M235.871 52.1562H232.379V37.5H235.871V52.1562ZM232.379 31.5234H235.871V34.793H232.379V31.5234Z" fill="#4A4A4A"/>
<path d="M237.762 37.5H241.258L243.68 47.4219H243.734L246.215 37.5H249.711L245.512 52.1562H241.848" fill="#4A4A4A"/>
<path d="M259.238 43.0234C259.18 40.9961 258.105 39.8086 256.418 39.8086C254.727 39.8086 253.656 40.9961 253.602 43.0234H259.238ZM253.602 45.3906C253.656 48.4336 255.012 49.6172 256.645 49.6172C258.277 49.6172 259.039 48.8867 259.914 47.8711L262.449 49.4492C261.098 51.5312 259.125 52.4375 256.305 52.4375C252.504 52.4375 250.105 49.4765 250.105 44.8242C250.105 40.1758 252.504 37.2187 256.477 37.2187C260.309 37.1875 262.449 40.4297 262.449 43.9531V45.3906" fill="#4A4A4A"/>
<path d="M264.535 52.1562V37.4961H267.746V40.0078H267.805C268.648 38.2617 269.836 37.2734 271.918 37.2188V40.9062C271.746 40.8828 271.551 40.8828 271.301 40.8828C269.551 40.8828 268.031 42.8828 268.031 43.2461V52.1562" fill="#4A4A4A"/>
<path d="M280.711 41.3594C280.008 40.6016 279.078 39.8086 277.977 39.8086C276.625 39.8086 276.004 40.3711 276.004 41.25C276.004 43.7539 283.336 42.6836 283.336 48.0391C283.336 51.082 281.023 52.4336 277.953 52.4336C275.609 52.4336 273.695 51.3906 272.398 49.4766L274.738 47.7305C275.555 48.8555 276.656 49.8398 278.152 49.8398C279.387 49.8398 280.23 49.1641 280.23 48.1797C280.23 45.6719 272.906 46.5742 272.906 41.4727C272.906 38.7383 275.219 37.2188 277.754 37.2188C279.699 37.2188 281.645 37.9492 282.914 39.4453" fill="#4A4A4A"/>
<path d="M289.395 52.1562H285.898V37.5H289.395V52.1562ZM285.898 31.5234H289.395V34.793H285.898V31.5234Z" fill="#4A4A4A"/>
<path d="M293.367 37.5V32.6484H296.859V37.5H299.734V40.3164H296.859V48.6055C296.859 49.3906 297.254 49.6172 298.133 49.6172C298.664 49.6172 299.23 49.4492 299.734 49.332V52.2109C298.777 52.3203 297.934 52.4336 296.973 52.4336C294.383 52.4336 293.367 51.1406 293.367 49.0547V40.3164H291.34V37.5" fill="#4A4A4A"/>
<path d="M300.102 54.5234C300.641 54.6367 301.063 54.6367 301.566 54.6367C302.777 54.6367 303.453 54.2969 303.879 53.4766C304.215 52.7773 304.445 52.3516 304.445 51.7578C304.445 51.2227 304.164 50.6016 303.992 50.0117L300.074 37.5H303.598L306.02 46.5156H306.078L308.59 37.5H312.082L307.457 52.1836C305.91 56.3828 304.668 57.5117 301.793 57.5117C300.949 57.5117 300.527 57.4531 300.102 57.3984" fill="#4A4A4A"/>
<path d="M322.227 39.3008C323.637 38.3984 325.27 36.8789 325.27 35.3281C325.27 34.0586 324.254 33.2734 323.242 33.2734C321.746 33.2734 321.043 34.5078 321.043 35.6641C321.043 36.9922 321.773 38.457 322.227 39.3008ZM322.34 50.5195C324.141 50.5195 325.469 49.7852 326.453 48.8281C324.598 46.6836 322.789 44.375 321.324 42.0078C319.691 43.0781 318.223 44.2617 318.223 46.7422C318.223 49.3086 320.363 50.5195 322.34 50.5195ZM331.527 42.3477C331.133 44.4336 330.23 46.9688 329.246 48.4062C330.117 49.3359 331.863 50.125 332.598 50.125V52.1523H331.863C330.852 52.1523 329.047 51.2539 327.863 50.125C326.512 51.5898 324.707 52.4336 322.059 52.4336C318.898 52.4336 315.969 50.1523 315.969 46.6016C315.969 43.8398 318.254 41.8125 320.395 40.457C319.574 39.2461 318.785 37.2188 318.785 35.582C318.785 33.2734 320.535 31.5234 323.355 31.5234C325.664 31.5234 327.523 32.875 327.523 35.3008C327.523 37.668 325.102 39.5273 323.242 40.8828C324.598 43.3047 326.398 45.4453 327.836 47.0234C328.48 46.1797 329.301 44.0664 329.668 41.8945" fill="#4A4A4A"/>
<path d="M348.523 37.7227C347.957 36.0039 346.746 34.793 344.828 34.793C342.238 34.793 340.66 37.2187 340.66 41.9805C340.602 46.7422 342.012 49.168 344.941 49.168C346.691 49.168 347.762 48.5469 348.914 46.1523L352.523 47.1094C351.312 50.6328 348.664 52.4336 344.941 52.4336C339.758 52.4336 336.77 48.6289 336.77 41.9805C336.77 35.3281 339.758 31.5234 344.941 31.5234C348.832 31.5234 351.086 33.2734 352.043 36.8789" fill="#4A4A4A"/>
<path d="M359.625 40.0312C357.68 40.0312 356.75 41.5586 356.75 44.8242C356.75 48.0977 357.68 49.6172 359.625 49.6172C361.57 49.6172 362.5 48.0977 362.5 44.8242C362.5 41.5586 361.57 40.0312 359.625 40.0312ZM359.625 37.2188C363.598 37.2188 365.992 40.1758 365.992 44.8242C365.992 49.4766 363.598 52.4336 359.625 52.4336C355.652 52.4336 353.258 49.4766 353.258 44.8242C353.258 40.1758 355.652 37.2188 359.625 37.2188Z" fill="#4A4A4A"/>
<path d="M368.277 52.1562H371.773V31.8047H368.277V52.1562Z" fill="#4A4A4A"/>
<path d="M375.551 52.1562H379.043V31.8047H375.551V52.1562Z" fill="#4A4A4A"/>
<path d="M390.457 43.0234C390.402 40.9961 389.328 39.8086 387.641 39.8086C385.949 39.8086 384.879 40.9961 384.82 43.0234H390.457ZM384.82 45.3906C384.879 48.4336 386.23 49.6172 387.863 49.6172C389.496 49.6172 390.262 48.8867 391.133 47.8711L393.668 49.4492C392.32 51.5312 390.348 52.4375 387.527 52.4375C383.723 52.4375 381.328 49.4765 381.328 44.8242C381.328 40.1758 383.723 37.2187 387.695 37.2187C391.531 37.1875 393.668 40.4297 393.668 43.9531V45.3906" fill="#4A4A4A"/>
<path d="M400.859 39.8085C399.363 39.8085 398.32 40.8827 398.32 42.2343C398.32 43.5859 399.363 44.6562 400.859 44.6562C402.18 44.6562 403.254 43.5859 403.254 42.2343C403.254 40.8827 402.18 39.8085 400.859 39.8085ZM397.727 53.5624C397.727 54.6913 398.687 55.1952 401.617 55.1952C403.871 55.1952 404.637 54.0702 404.637 53.5624C404.637 52.8866 403.59 51.871 400.211 51.871C398.293 51.871 397.727 52.9413 397.727 53.5624ZM407.934 39.5819C407.117 39.5819 406.215 39.5819 405.676 39.9218C406.125 40.5429 406.465 41.3905 406.465 42.5155C406.465 45.2773 404.609 47.2499 400.941 47.2499C399.422 47.2499 398.207 47.3085 398.207 48.1523C398.207 50.5194 407.852 47.3085 407.852 53.1718C407.852 55.2577 405.73 57.5116 401.055 57.5116C397.113 57.5116 394.516 56.3241 394.516 54.0155C394.516 52.1835 395.898 51.3085 397.164 51.3085V51.2538C396.488 50.828 394.996 50.4648 394.996 48.8866C394.996 47.4765 396.629 46.4023 397.277 46.2069C396.066 45.2226 395.109 44.0976 395.109 42.3163C395.109 39.7499 397.082 37.2187 400.887 37.2187C402.125 37.2187 403.59 37.7226 404.496 38.5116C405.168 37.6132 406.27 37.1601 407.934 37.2187" fill="#4A4A4A"/>
<path d="M417.512 43.0234C417.461 40.9961 416.387 39.8086 414.695 39.8086C413.004 39.8086 411.938 40.9961 411.875 43.0234H417.512ZM411.875 45.3906C411.938 48.4336 413.289 49.6172 414.922 49.6172C416.555 49.6172 417.32 48.8867 418.191 47.8711L420.727 49.4492C419.371 51.5312 417.402 52.4375 414.582 52.4375C410.777 52.4375 408.383 49.4765 408.383 44.8242C408.383 40.1758 410.777 37.2187 414.75 37.2187C418.586 37.1875 420.727 40.4297 420.727 43.9531V45.3906" fill="#4A4A4A"/>
<path d="M430.164 41.3594C429.465 40.6016 428.531 39.8086 427.434 39.8086C426.082 39.8086 425.461 40.3711 425.461 41.25C425.461 43.7539 432.789 42.6836 432.789 48.0391C432.789 51.082 430.48 52.4336 427.406 52.4336C425.07 52.4336 423.148 51.3906 421.852 49.4766L424.195 47.7305C425.012 48.8555 426.109 49.8398 427.605 49.8398C428.844 49.8398 429.695 49.1641 429.695 48.1797C429.695 45.6719 422.363 46.5742 422.363 41.4727C422.363 38.7383 424.676 37.2188 427.211 37.2188C429.152 37.2188 431.102 37.9492 432.367 39.4453" fill="#4A4A4A"/>
<path d="M443.039 42.0664L442.879 39.4453C442.863 39.0977 442.863 38.6719 442.848 38.1953H442.797C442.68 38.5898 442.535 39.1133 442.426 39.5234L441.617 42.0039H440.699L439.891 39.457C439.812 39.1328 439.68 38.5898 439.586 38.1953H439.531C439.531 38.6055 439.52 39.0312 439.5 39.4453L439.34 42.0664H438.48L438.816 37.6055H440.141L440.91 39.7852C441.023 40.1328 441.09 40.457 441.207 40.918H441.223C441.34 40.5312 441.438 40.1328 441.531 39.8203L442.305 37.6055H443.586L443.93 42.0664H443.039ZM438.223 37.6055V38.3477H436.793V42.0664H435.906V38.3477H434.496V37.6055" fill="#1C1C1A"/>
<rect x="303" y="62" width="130" height="20" fill="#E21E25"/>
<path d="M315.964 74.404H312.628L312.076 76H310.312L313.324 67.612H315.28L318.292 76H316.516L315.964 74.404ZM315.508 73.06L314.296 69.556L313.084 73.06H315.508ZM318.986 72.676C318.986 71.988 319.126 71.388 319.406 70.876C319.686 70.356 320.074 69.956 320.57 69.676C321.066 69.388 321.634 69.244 322.274 69.244C323.098 69.244 323.778 69.452 324.314 69.868C324.858 70.276 325.222 70.852 325.406 71.596H323.594C323.498 71.308 323.334 71.084 323.102 70.924C322.878 70.756 322.598 70.672 322.262 70.672C321.782 70.672 321.402 70.848 321.122 71.2C320.842 71.544 320.702 72.036 320.702 72.676C320.702 73.308 320.842 73.8 321.122 74.152C321.402 74.496 321.782 74.668 322.262 74.668C322.942 74.668 323.386 74.364 323.594 73.756H325.406C325.222 74.476 324.858 75.048 324.314 75.472C323.77 75.896 323.09 76.108 322.274 76.108C321.634 76.108 321.066 75.968 320.57 75.688C320.074 75.4 319.686 75 319.406 74.488C319.126 73.968 318.986 73.364 318.986 72.676ZM326.205 72.652C326.205 71.98 326.337 71.384 326.601 70.864C326.873 70.344 327.237 69.944 327.693 69.664C328.157 69.384 328.673 69.244 329.241 69.244C329.737 69.244 330.169 69.344 330.537 69.544C330.913 69.744 331.213 69.996 331.437 70.3V69.352H333.129V76H331.437V75.028C331.221 75.34 330.921 75.6 330.537 75.808C330.161 76.008 329.725 76.108 329.229 76.108C328.669 76.108 328.157 75.964 327.693 75.676C327.237 75.388 326.873 74.984 326.601 74.464C326.337 73.936 326.205 73.332 326.205 72.652ZM331.437 72.676C331.437 72.268 331.357 71.92 331.197 71.632C331.037 71.336 330.821 71.112 330.549 70.96C330.277 70.8 329.985 70.72 329.673 70.72C329.361 70.72 329.073 70.796 328.809 70.948C328.545 71.1 328.329 71.324 328.161 71.62C328.001 71.908 327.921 72.252 327.921 72.652C327.921 73.052 328.001 73.404 328.161 73.708C328.329 74.004 328.545 74.232 328.809 74.392C329.081 74.552 329.369 74.632 329.673 74.632C329.985 74.632 330.277 74.556 330.549 74.404C330.821 74.244 331.037 74.02 331.197 73.732C331.357 73.436 331.437 73.084 331.437 72.676ZM334.337 72.652C334.337 71.98 334.469 71.384 334.733 70.864C335.005 70.344 335.373 69.944 335.837 69.664C336.301 69.384 336.817 69.244 337.385 69.244C337.817 69.244 338.229 69.34 338.621 69.532C339.013 69.716 339.325 69.964 339.557 70.276V67.12H341.261V76H339.557V75.016C339.349 75.344 339.057 75.608 338.681 75.808C338.305 76.008 337.869 76.108 337.373 76.108C336.813 76.108 336.301 75.964 335.837 75.676C335.373 75.388 335.005 74.984 334.733 74.464C334.469 73.936 334.337 73.332 334.337 72.652ZM339.569 72.676C339.569 72.268 339.489 71.92 339.329 71.632C339.169 71.336 338.953 71.112 338.681 70.96C338.409 70.8 338.117 70.72 337.805 70.72C337.493 70.72 337.205 70.796 336.941 70.948C336.677 71.1 336.461 71.324 336.293 71.62C336.133 71.908 336.053 72.252 336.053 72.652C336.053 73.052 336.133 73.404 336.293 73.708C336.461 74.004 336.677 74.232 336.941 74.392C337.213 74.552 337.501 74.632 337.805 74.632C338.117 74.632 338.409 74.556 338.681 74.404C338.953 74.244 339.169 74.02 339.329 73.732C339.489 73.436 339.569 73.084 339.569 72.676ZM349.082 72.532C349.082 72.772 349.066 72.988 349.034 73.18H344.174C344.214 73.66 344.382 74.036 344.678 74.308C344.974 74.58 345.338 74.716 345.77 74.716C346.394 74.716 346.838 74.448 347.102 73.912H348.914C348.722 74.552 348.354 75.08 347.81 75.496C347.266 75.904 346.598 76.108 345.806 76.108C345.166 76.108 344.59 75.968 344.078 75.688C343.574 75.4 343.178 74.996 342.89 74.476C342.61 73.956 342.47 73.356 342.47 72.676C342.47 71.988 342.61 71.384 342.89 70.864C343.17 70.344 343.562 69.944 344.066 69.664C344.57 69.384 345.15 69.244 345.806 69.244C346.438 69.244 347.002 69.38 347.498 69.652C348.002 69.924 348.39 70.312 348.662 70.816C348.942 71.312 349.082 71.884 349.082 72.532ZM347.342 72.052C347.334 71.62 347.178 71.276 346.874 71.02C346.57 70.756 346.198 70.624 345.758 70.624C345.342 70.624 344.99 70.752 344.702 71.008C344.422 71.256 344.25 71.604 344.186 72.052H347.342ZM358.564 69.256C359.38 69.256 360.036 69.508 360.532 70.012C361.036 70.508 361.288 71.204 361.288 72.1V76H359.608V72.328C359.608 71.808 359.476 71.412 359.212 71.14C358.948 70.86 358.588 70.72 358.132 70.72C357.676 70.72 357.312 70.86 357.04 71.14C356.776 71.412 356.644 71.808 356.644 72.328V76H354.964V72.328C354.964 71.808 354.832 71.412 354.568 71.14C354.304 70.86 353.944 70.72 353.488 70.72C353.024 70.72 352.656 70.86 352.384 71.14C352.12 71.412 351.988 71.808 351.988 72.328V76H350.308V69.352H351.988V70.156C352.204 69.876 352.48 69.656 352.816 69.496C353.16 69.336 353.536 69.256 353.944 69.256C354.464 69.256 354.928 69.368 355.336 69.592C355.744 69.808 356.06 70.12 356.284 70.528C356.5 70.144 356.812 69.836 357.22 69.604C357.636 69.372 358.084 69.256 358.564 69.256ZM363.735 68.56C363.439 68.56 363.191 68.468 362.991 68.284C362.799 68.092 362.703 67.856 362.703 67.576C362.703 67.296 362.799 67.064 362.991 66.88C363.191 66.688 363.439 66.592 363.735 66.592C364.031 66.592 364.275 66.688 364.467 66.88C364.667 67.064 364.767 67.296 364.767 67.576C364.767 67.856 364.667 68.092 364.467 68.284C364.275 68.468 364.031 68.56 363.735 68.56ZM364.563 69.352V76H362.883V69.352H364.563ZM365.791 72.676C365.791 71.988 365.931 71.388 366.211 70.876C366.491 70.356 366.879 69.956 367.375 69.676C367.871 69.388 368.439 69.244 369.079 69.244C369.903 69.244 370.583 69.452 371.119 69.868C371.663 70.276 372.027 70.852 372.211 71.596H370.399C370.303 71.308 370.139 71.084 369.907 70.924C369.683 70.756 369.403 70.672 369.067 70.672C368.587 70.672 368.207 70.848 367.927 71.2C367.647 71.544 367.507 72.036 367.507 72.676C367.507 73.308 367.647 73.8 367.927 74.152C368.207 74.496 368.587 74.668 369.067 74.668C369.747 74.668 370.191 74.364 370.399 73.756H372.211C372.027 74.476 371.663 75.048 371.119 75.472C370.575 75.896 369.895 76.108 369.079 76.108C368.439 76.108 367.871 75.968 367.375 75.688C366.879 75.4 366.491 75 366.211 74.488C365.931 73.968 365.791 73.364 365.791 72.676ZM379.193 76.084C378.609 76.084 378.081 75.984 377.609 75.784C377.145 75.584 376.777 75.296 376.505 74.92C376.233 74.544 376.093 74.1 376.085 73.588H377.885C377.909 73.932 378.029 74.204 378.245 74.404C378.469 74.604 378.773 74.704 379.157 74.704C379.549 74.704 379.857 74.612 380.081 74.428C380.305 74.236 380.417 73.988 380.417 73.684C380.417 73.436 380.341 73.232 380.189 73.072C380.037 72.912 379.845 72.788 379.613 72.7C379.389 72.604 379.077 72.5 378.677 72.388C378.133 72.228 377.689 72.072 377.345 71.92C377.009 71.76 376.717 71.524 376.469 71.212C376.229 70.892 376.109 70.468 376.109 69.94C376.109 69.444 376.233 69.012 376.481 68.644C376.729 68.276 377.077 67.996 377.525 67.804C377.973 67.604 378.485 67.504 379.061 67.504C379.925 67.504 380.625 67.716 381.161 68.14C381.705 68.556 382.005 69.14 382.061 69.892H380.213C380.197 69.604 380.073 69.368 379.841 69.184C379.617 68.992 379.317 68.896 378.941 68.896C378.613 68.896 378.349 68.98 378.149 69.148C377.957 69.316 377.861 69.56 377.861 69.88C377.861 70.104 377.933 70.292 378.077 70.444C378.229 70.588 378.413 70.708 378.629 70.804C378.853 70.892 379.165 70.996 379.565 71.116C380.109 71.276 380.553 71.436 380.897 71.596C381.241 71.756 381.537 71.996 381.785 72.316C382.033 72.636 382.157 73.056 382.157 73.576C382.157 74.024 382.041 74.44 381.809 74.824C381.577 75.208 381.237 75.516 380.789 75.748C380.341 75.972 379.809 76.084 379.193 76.084ZM389.793 72.532C389.793 72.772 389.777 72.988 389.745 73.18H384.885C384.925 73.66 385.093 74.036 385.389 74.308C385.685 74.58 386.049 74.716 386.481 74.716C387.105 74.716 387.549 74.448 387.813 73.912H389.625C389.433 74.552 389.065 75.08 388.521 75.496C387.977 75.904 387.309 76.108 386.517 76.108C385.877 76.108 385.301 75.968 384.789 75.688C384.285 75.4 383.889 74.996 383.601 74.476C383.321 73.956 383.181 73.356 383.181 72.676C383.181 71.988 383.321 71.384 383.601 70.864C383.881 70.344 384.273 69.944 384.777 69.664C385.281 69.384 385.861 69.244 386.517 69.244C387.149 69.244 387.713 69.38 388.209 69.652C388.713 69.924 389.101 70.312 389.373 70.816C389.653 71.312 389.793 71.884 389.793 72.532ZM388.053 72.052C388.045 71.62 387.889 71.276 387.585 71.02C387.281 70.756 386.909 70.624 386.469 70.624C386.053 70.624 385.701 70.752 385.413 71.008C385.133 71.256 384.961 71.604 384.897 72.052H388.053ZM392.699 70.384C392.915 70.032 393.195 69.756 393.539 69.556C393.891 69.356 394.291 69.256 394.739 69.256V71.02H394.295C393.767 71.02 393.367 71.144 393.095 71.392C392.831 71.64 392.699 72.072 392.699 72.688V76H391.019V69.352H392.699V70.384ZM398.643 74.452L400.323 69.352H402.111L399.651 76H397.611L395.163 69.352H396.963L398.643 74.452ZM403.907 68.56C403.611 68.56 403.363 68.468 403.163 68.284C402.971 68.092 402.875 67.856 402.875 67.576C402.875 67.296 402.971 67.064 403.163 66.88C403.363 66.688 403.611 66.592 403.907 66.592C404.203 66.592 404.447 66.688 404.639 66.88C404.839 67.064 404.939 67.296 404.939 67.576C404.939 67.856 404.839 68.092 404.639 68.284C404.447 68.468 404.203 68.56 403.907 68.56ZM404.735 69.352V76H403.055V69.352H404.735ZM405.962 72.676C405.962 71.988 406.102 71.388 406.382 70.876C406.662 70.356 407.05 69.956 407.546 69.676C408.042 69.388 408.61 69.244 409.25 69.244C410.074 69.244 410.754 69.452 411.29 69.868C411.834 70.276 412.198 70.852 412.382 71.596H410.57C410.474 71.308 410.31 71.084 410.078 70.924C409.854 70.756 409.574 70.672 409.238 70.672C408.758 70.672 408.378 70.848 408.098 71.2C407.818 71.544 407.678 72.036 407.678 72.676C407.678 73.308 407.818 73.8 408.098 74.152C408.378 74.496 408.758 74.668 409.238 74.668C409.918 74.668 410.362 74.364 410.57 73.756H412.382C412.198 74.476 411.834 75.048 411.29 75.472C410.746 75.896 410.066 76.108 409.25 76.108C408.61 76.108 408.042 75.968 407.546 75.688C407.05 75.4 406.662 75 406.382 74.488C406.102 73.968 405.962 73.364 405.962 72.676ZM419.793 72.532C419.793 72.772 419.777 72.988 419.745 73.18H414.885C414.925 73.66 415.093 74.036 415.389 74.308C415.685 74.58 416.049 74.716 416.481 74.716C417.105 74.716 417.549 74.448 417.813 73.912H419.625C419.433 74.552 419.065 75.08 418.521 75.496C417.977 75.904 417.309 76.108 416.517 76.108C415.877 76.108 415.301 75.968 414.789 75.688C414.285 75.4 413.889 74.996 413.601 74.476C413.321 73.956 413.181 73.356 413.181 72.676C413.181 71.988 413.321 71.384 413.601 70.864C413.881 70.344 414.273 69.944 414.777 69.664C415.281 69.384 415.861 69.244 416.517 69.244C417.149 69.244 417.713 69.38 418.209 69.652C418.713 69.924 419.101 70.312 419.373 70.816C419.653 71.312 419.793 71.884 419.793 72.532ZM418.053 72.052C418.045 71.62 417.889 71.276 417.585 71.02C417.281 70.756 416.909 70.624 416.469 70.624C416.053 70.624 415.701 70.752 415.413 71.008C415.133 71.256 414.961 71.604 414.897 72.052H418.053ZM423.563 76.108C423.019 76.108 422.531 76.012 422.099 75.82C421.667 75.62 421.323 75.352 421.067 75.016C420.819 74.68 420.683 74.308 420.659 73.9H422.351C422.383 74.156 422.507 74.368 422.723 74.536C422.947 74.704 423.223 74.788 423.551 74.788C423.871 74.788 424.119 74.724 424.295 74.596C424.479 74.468 424.571 74.304 424.571 74.104C424.571 73.888 424.459 73.728 424.235 73.624C424.019 73.512 423.671 73.392 423.191 73.264C422.695 73.144 422.287 73.02 421.967 72.892C421.655 72.764 421.383 72.568 421.151 72.304C420.927 72.04 420.815 71.684 420.815 71.236C420.815 70.868 420.919 70.532 421.127 70.228C421.343 69.924 421.647 69.684 422.039 69.508C422.439 69.332 422.907 69.244 423.443 69.244C424.235 69.244 424.867 69.444 425.339 69.844C425.811 70.236 426.071 70.768 426.119 71.44H424.511C424.487 71.176 424.375 70.968 424.175 70.816C423.983 70.656 423.723 70.576 423.395 70.576C423.091 70.576 422.855 70.632 422.687 70.744C422.527 70.856 422.447 71.012 422.447 71.212C422.447 71.436 422.559 71.608 422.783 71.728C423.007 71.84 423.355 71.956 423.827 72.076C424.307 72.196 424.703 72.32 425.015 72.448C425.327 72.576 425.595 72.776 425.819 73.048C426.051 73.312 426.171 73.664 426.179 74.104C426.179 74.488 426.071 74.832 425.855 75.136C425.647 75.44 425.343 75.68 424.943 75.856C424.551 76.024 424.091 76.108 423.563 76.108Z" fill="white"/>
</svg>
